<svg width="48" height="16" viewBox="0 0 48 16" fill="none" xmlns="http://www.w3.org/2000/svg">
<path d="M28.4672 8.78418C28.4672 8.55578 28.6434 6.35465 30.9802 6.35465C32.5293 6.35465 33.0887 7.26488 33.3822 8.78418H28.4672ZM31.0633 3.99111C27.5834 3.99111 25.4439 6.73194 25.4439 10.0159C25.4439 12.8531 27.011 16 31.0633 16C34.7406 16 35.7859 13.5519 36.2115 12.1831H34.2938C33.8518 12.1831 33.5306 12.3642 33.2305 12.7482C33.105 12.8971 32.4625 13.6601 31.171 13.6601C28.5553 13.6601 28.5178 11.5064 28.4672 10.7704H36.4039C36.6273 7.46452 34.9428 3.99111 31.0633 3.99111Z" fill="#652D86"/>
<path d="M38.2759 0.00508154V12.8481C38.2988 15.012 38.682 15.7631 41.2797 15.7631L41.278 2.53781C41.2568 0.409438 40.859 0.00508154 38.2759 0.00508154Z" fill="#652D86"/>
<path d="M44.1073 0.00508154V12.8481C44.1302 15.012 44.515 15.7631 47.1111 15.7631L47.1078 2.53781C47.0882 0.409438 46.692 0.00508154 44.1073 0.00508154Z" fill="#652D86"/>
<path d="M22.1385 11.344C22.1385 11.344 21.4503 11.3186 21.1861 12.0698C20.8111 13.139 20.1245 13.6601 18.9553 13.6601C17.1371 13.6601 16.4457 11.8634 16.4457 10.0175C16.4457 8.26477 17.1567 6.35465 19.0206 6.35465C20.1832 6.35465 20.7997 6.89436 21.0638 7.59479C21.2073 7.97546 21.4209 8.32061 22.0879 8.32061H24.2127C24.0513 5.37337 21.6085 3.99111 19.0385 3.99111C15.252 3.99111 13.4256 6.84022 13.4256 10.1529C13.4256 13.8615 15.9059 16 18.9749 16C21.659 16 23.8523 14.6025 24.2731 11.344H22.1385Z" fill="#652D86"/>
<path d="M0 15.7631H3.32664V10.6892L5.23946 8.67759C5.23946 8.67759 7.08705 11.525 8.32802 13.4656C9.57388 15.4011 10.1707 15.7631 12.395 15.7631H14.0078L7.49963 6.22777L13.4321 0.00507561H11.8063C10.2327 0.00507561 9.2135 0.0642911 7.96274 1.43809C6.70547 2.80681 3.32664 6.53907 3.32664 6.53907V3.06905C3.32177 0.783335 2.94506 0 0 0V15.7631Z" fill="#652D86"/>
</svg>
