<svg xmlns="http://www.w3.org/2000/svg" width="24" height="24" viewBox="0 0 24 24" fill="none">
    <path fill-rule="evenodd" clip-rule="evenodd"
        d="M7.24922 2.79995C7.18627 2.79995 7.12699 2.82959 7.08922 2.87995L5.34922 5.19995H18.1492L16.4092 2.87995C16.3714 2.82959 16.3122 2.79995 16.2492 2.79995H7.24922ZM18.9492 6.79995V11.5C18.9492 11.9418 19.3074 12.3 19.7492 12.3C20.191 12.3 20.5492 11.9418 20.5492 11.5V6.66662C20.5492 6.06078 20.3527 5.47129 19.9892 4.98662L17.6892 1.91995C17.3493 1.4667 16.8158 1.19995 16.2492 1.19995H7.24922C6.68266 1.19995 6.14916 1.4667 5.80922 1.91995L3.50922 4.98662C3.14572 5.47129 2.94922 6.06078 2.94922 6.66662V19C2.94922 20.5463 4.20282 21.7999 5.74922 21.7999H11.9992C12.441 21.7999 12.7992 21.4418 12.7992 21C12.7992 20.5581 12.441 20.2 11.9992 20.2H5.74922C5.08648 20.2 4.54922 19.6627 4.54922 19V6.79995H18.9492Z"
        fill="currentColor" />
    <path fill-rule="evenodd" clip-rule="evenodd"
        d="M23.9993 19C23.9993 21.7614 21.7607 24 18.9993 24C16.2379 24 13.9993 21.7614 13.9993 19C13.9993 16.2385 16.2379 14 18.9993 14C21.7607 14 23.9993 16.2385 23.9993 19ZM16.1993 19C16.1993 18.5581 16.5575 18.2 16.9993 18.2H18.1993V17C18.1993 16.5581 18.5575 16.2 18.9993 16.2C19.4411 16.2 19.7993 16.5581 19.7993 17V18.2H20.9993C21.4411 18.2 21.7993 18.5581 21.7993 19C21.7993 19.4418 21.4411 19.8 20.9993 19.8H19.7993V21C19.7993 21.4418 19.4411 21.8 18.9993 21.8C18.5575 21.8 18.1993 21.4418 18.1993 21V19.8H16.9993C16.5575 19.8 16.1993 19.4418 16.1993 19Z"
        fill="currentColor" />
    <path fill-rule="evenodd" clip-rule="evenodd"
        d="M16.065 9.75776C16.3774 10.0702 16.3774 10.5767 16.065 10.8891L11.212 15.7421C10.8996 16.0545 10.3931 16.0545 10.0807 15.7421L7.43361 13.095C7.1212 12.7826 7.1212 12.2761 7.43361 11.9636C7.74603 11.6512 8.25257 11.6512 8.56499 11.9636L10.6464 14.045L14.9336 9.75776C15.246 9.44534 15.7526 9.44534 16.065 9.75776Z"
        fill="currentColor" />
</svg>