<svg xmlns="http://www.w3.org/2000/svg" width="24" height="24" viewBox="0 0 24 24" fill="none">
    <path
        d="M11.2462 10.9688C11.343 10.6518 11.6783 10.4733 11.9953 10.5701L13.7376 11.1019C13.99 11.1789 14.1625 11.4119 14.1625 11.6758V13.3154C14.1625 13.6467 13.8939 13.9154 13.5625 13.9154C13.2311 13.9154 12.9625 13.6467 12.9625 13.3154V12.8837C11.8834 13.905 11.2002 15.3861 11.2002 17.0414C11.2002 20.1565 13.609 22.6358 16.5247 22.6358C16.8561 22.6358 17.1247 22.9044 17.1247 23.2358C17.1247 23.5671 16.8561 23.8358 16.5247 23.8358C12.8964 23.8358 10.0002 20.7684 10.0002 17.0414C10.0002 14.9945 10.8706 13.1524 12.2547 11.9039L11.6449 11.7178C11.328 11.621 11.1495 11.2857 11.2462 10.9688Z"
        fill="currentColor" />
    <path
        d="M22.0083 22.8019C21.9083 23.1179 21.5711 23.2929 21.2552 23.193L19.7994 22.7323C19.5499 22.6534 19.3804 22.4219 19.3804 22.1602V20.4495C19.3804 20.1181 19.649 19.8495 19.9804 19.8495C20.3118 19.8495 20.5804 20.1181 20.5804 20.4495V20.9523C21.6595 19.931 22.3426 18.4499 22.3426 16.7946C22.3426 13.6794 19.9339 11.2002 17.0182 11.2002C16.6868 11.2002 16.4182 10.9316 16.4182 10.6002C16.4182 10.2689 16.6868 10.0002 17.0182 10.0002C20.6464 10.0002 23.5426 13.0676 23.5426 16.7946C23.5426 18.8466 22.6679 20.6928 21.2778 21.9415L21.6172 22.0489C21.9332 22.1488 22.1082 22.486 22.0083 22.8019Z"
        fill="currentColor" />
    <path fill-rule="evenodd" clip-rule="evenodd"
        d="M19.8856 17.0374C19.8856 18.7507 18.4967 20.1395 16.7835 20.1395C15.0703 20.1395 13.6814 18.7507 13.6814 17.0374C13.6814 15.3242 15.0703 13.9354 16.7835 13.9354C18.4967 13.9354 19.8856 15.3242 19.8856 17.0374ZM15.5108 15.6057V16.0829H18.0561V15.6057H15.5108ZM15.5108 16.5602V17.0374H16.4653V18.6282H17.1017V17.0374H18.0561V16.5602H15.5108Z"
        fill="currentColor" />
    <path
        d="M6.25035 0.200195C6.69218 0.200195 7.05035 0.558368 7.05035 1.0002V2.20019H15.4503V1.0002C15.4503 0.558368 15.8084 0.200195 16.2503 0.200195C16.6921 0.200195 17.0503 0.558368 17.0503 1.0002V2.20019H17.2502C19.3489 2.20019 21.0502 3.9015 21.0502 6.00019V8.28706C21.0502 8.59597 20.7266 8.79964 20.4412 8.68146C19.8696 8.44475 19.4502 7.91047 19.4502 7.29177V6.00019C19.4502 4.78516 18.4652 3.80019 17.2502 3.80019H17.0503V5.0002C17.0503 5.44202 16.6921 5.80019 16.2503 5.80019C15.8084 5.80019 15.4503 5.44202 15.4503 5.0002V3.80019H7.05035V5.0002C7.05035 5.44202 6.69218 5.80019 6.25035 5.80019C5.80852 5.80019 5.45035 5.44202 5.45035 5.0002V3.80019H5.2502C4.03517 3.80019 3.0502 4.78516 3.0502 6.00019V18.0002C3.0502 19.2152 4.03517 20.2002 5.2502 20.2002H8.09236C8.38939 20.2002 8.65399 20.3872 8.77485 20.6586C9.00417 21.1734 8.65083 21.8002 8.08723 21.8002H5.2502C3.15151 21.8002 1.4502 20.0989 1.4502 18.0002V6.00019C1.4502 3.9015 3.15151 2.20019 5.2502 2.20019H5.45035V1.0002C5.45035 0.558368 5.80852 0.200195 6.25035 0.200195Z"
        fill="currentColor" />
</svg>