<svg xmlns="http://www.w3.org/2000/svg" width="24" height="24" viewBox="0 0 24 24" fill="none">
    <path
        d="M8.99995 15.2002C8.55812 15.2002 8.19995 15.5584 8.19995 16.0002C8.19995 16.442 8.55812 16.8002 8.99995 16.8002H15C15.4418 16.8002 15.8 16.442 15.8 16.0002C15.8 15.5584 15.4418 15.2002 15 15.2002H8.99995Z"
        fill="currentColor" />
    <path fill-rule="evenodd" clip-rule="evenodd"
        d="M7.79995 1.0002C7.79995 0.558368 7.44178 0.200195 6.99995 0.200195C6.55812 0.200195 6.19995 0.558368 6.19995 1.0002V2.2002H5.99995C3.90127 2.2002 2.19995 3.90151 2.19995 6.0002V18.0002C2.19995 20.0989 3.90127 21.8002 5.99995 21.8002H18C20.0986 21.8002 21.7999 20.0989 21.7999 18.0002V6.0002C21.7999 3.90151 20.0986 2.2002 18 2.2002H17.8V1.0002C17.8 0.558368 17.4418 0.200195 17 0.200195C16.5581 0.200195 16.2 0.558368 16.2 1.0002V2.2002H7.79995V1.0002ZM16.2 5.0002V3.8002H7.79995V5.0002C7.79995 5.44202 7.44178 5.8002 6.99995 5.8002C6.55812 5.8002 6.19995 5.44202 6.19995 5.0002V3.8002H5.99995C4.78492 3.8002 3.79995 4.78517 3.79995 6.0002V18.0002C3.79995 19.2152 4.78492 20.2002 5.99995 20.2002H18C19.215 20.2002 20.2 19.2152 20.2 18.0002V6.0002C20.2 4.78517 19.215 3.8002 18 3.8002H17.8V5.0002C17.8 5.44202 17.4418 5.8002 17 5.8002C16.5581 5.8002 16.2 5.44202 16.2 5.0002Z"
        fill="currentColor" />
</svg>