<svg xmlns="http://www.w3.org/2000/svg" width="24" height="24" viewBox="0 0 24 24" fill="none">
    <path d="M2 3H3.89214V12H2V3Z" fill="currentColor" />
    <path fill-rule="evenodd" clip-rule="evenodd"
        d="M13 7.49121C13 10.3037 11.3482 12 8.62141 12H5.4489V3H8.64763C11.3482 3 13 4.6875 13 7.49121ZM7.34105 4.63037V10.3696H8.54275C10.2251 10.3696 11.1122 9.49951 11.1122 7.49121C11.1122 5.4917 10.2251 4.63037 8.54712 4.63037H7.34105Z"
        fill="currentColor" />
    <path fill-rule="evenodd" clip-rule="evenodd"
        d="M21.0006 7.14151C20.2976 6.43857 19.1579 6.43857 18.455 7.14151L16.3337 9.26284C15.6307 9.96578 15.6307 11.1055 16.3337 11.8084L16.8951 12.3698C16.9683 12.4431 16.9624 12.5362 16.9241 12.5882C16.325 13.4025 15.6568 14.1823 14.9194 14.9197C14.182 15.6571 13.4022 16.3252 12.588 16.9243C12.536 16.9626 12.4428 16.9686 12.3696 16.8953L11.8082 16.3339C11.1052 15.631 9.96553 15.631 9.26259 16.3339L7.14127 18.4552C6.43833 19.1582 6.43833 20.2979 7.14127 21.0008L7.53677 21.3963C8.90373 22.7633 11.0421 23.2475 12.8199 22.2438C14.7373 21.1613 16.5406 19.8039 18.1721 18.1724C19.8036 16.5409 21.161 14.7376 22.2436 12.8202C23.2473 11.0423 22.763 8.90397 21.3961 7.53701L21.0006 7.14151ZM19.5863 8.27288C19.6645 8.19478 19.7911 8.19478 19.8692 8.27288L20.2647 8.66839C21.2023 9.60604 21.4489 10.9732 20.8503 12.0335C19.8384 13.8259 18.5688 15.513 17.0408 17.041C15.5127 18.569 13.8256 19.8386 12.0333 20.8505C10.973 21.4492 9.6058 21.2026 8.66814 20.2649L8.27264 19.8694C8.19454 19.7913 8.19454 19.6647 8.27264 19.5866L10.394 17.4653C10.4721 17.3872 10.5987 17.3872 10.6768 17.4653L11.2382 18.0267C11.8427 18.6312 12.8161 18.7429 13.5362 18.2131C14.4152 17.5664 15.2562 16.8457 16.0508 16.0511C16.8454 15.2565 17.5661 14.4154 18.2129 13.5364C18.7427 12.8164 18.6309 11.843 18.0264 11.2384L17.465 10.677C17.3869 10.5989 17.3869 10.4723 17.465 10.3942L19.5863 8.27288Z"
        fill="currentColor" />
</svg>