<svg xmlns="http://www.w3.org/2000/svg" width="24" height="24" viewBox="0 0 24 24" fill="none">
    <path fill-rule="evenodd" clip-rule="evenodd"
        d="M13.7992 8.99995C13.7992 8.00587 12.9933 7.19995 11.9993 7.19995C11.0052 7.19995 10.1992 8.00582 10.1992 8.99995C10.1992 9.99408 11.0052 10.8 11.9993 10.8C12.9933 10.8 13.7992 9.99403 13.7992 8.99995ZM11.9993 8.79995C12.1096 8.79995 12.1992 8.8895 12.1992 8.99995C12.1992 9.1104 12.1096 9.19995 11.9993 9.19995C11.8888 9.19995 11.7992 9.11036 11.7992 8.99995C11.7992 8.88955 11.8888 8.79995 11.9993 8.79995Z"
        fill="currentColor" />
    <path fill-rule="evenodd" clip-rule="evenodd"
        d="M16.8076 4.19182C19.4628 6.84705 19.4629 11.1528 16.8074 13.8083C15.6141 15.0017 13.6457 16.9956 12.7146 18.8578C12.5791 19.1288 12.3021 19.3 11.9991 19.3C11.6961 19.3 11.4191 19.1288 11.2835 18.8578C10.3523 16.9956 8.38412 15.0016 7.19096 13.8085C4.5354 11.1529 4.53527 6.84715 7.19078 4.19163C9.84629 1.53612 14.152 1.53625 16.8076 4.19182ZM15.6761 12.6769C17.7067 10.6463 17.7066 7.35356 15.6762 5.32319C13.6455 3.29242 10.3528 3.29238 8.32215 5.32301C6.29153 7.35363 6.29156 10.6463 8.32234 12.6771C9.25319 13.608 10.8555 15.213 11.9991 16.9249C13.1426 15.2129 14.7451 13.6079 15.6761 12.6769Z"
        fill="currentColor" />
    <path
        d="M16.2331 16.4277C16.1059 16.8508 16.3458 17.2969 16.7689 17.4241C17.6314 17.6834 18.2821 17.9968 18.6994 18.3156C19.1268 18.6422 19.1992 18.8825 19.1992 19C19.1992 19.1032 19.1463 19.2973 18.8398 19.569C18.5342 19.8399 18.0465 20.1204 17.3751 20.3722C16.0382 20.8735 14.1378 21.2 11.9996 21.2C9.86094 21.2 7.96034 20.8735 6.62341 20.3722C5.95199 20.1204 5.4642 19.8399 5.15865 19.569C4.85215 19.2973 4.79922 19.1032 4.79922 19C4.79922 18.8825 4.87163 18.6422 5.29909 18.3156C5.71636 17.9968 6.36706 17.6834 7.22965 17.4241C7.65277 17.2969 7.89267 16.8508 7.76548 16.4277C7.63829 16.0045 7.19217 15.7646 6.76904 15.8918C5.80265 16.1823 4.95329 16.5663 4.32774 17.0442C3.71238 17.5143 3.19922 18.17 3.19922 19C3.19922 19.7251 3.59404 20.3202 4.09724 20.7663C4.60139 21.2132 5.28526 21.5792 6.06163 21.8703C7.62029 22.4548 9.71987 22.8 11.9996 22.8C14.2789 22.8 16.3783 22.4548 17.9369 21.8703C18.7132 21.5792 19.3971 21.2132 19.9012 20.7663C20.4044 20.3202 20.7992 19.7251 20.7992 19C20.7992 18.17 20.2861 17.5143 19.6707 17.0442C19.0452 16.5663 18.1959 16.1824 17.2295 15.8918C16.8064 15.7646 16.3603 16.0045 16.2331 16.4277Z"
        fill="currentColor" />
</svg>