<svg xmlns="http://www.w3.org/2000/svg" width="24" height="24" viewBox="0 0 24 24" fill="none">
    <path
        d="M12.7269 9.82583C12.7269 10.2677 13.0851 10.6258 13.5269 10.6258H13.7023L12.4735 11.8547L10.9323 10.3135C10.7823 10.1635 10.5788 10.0792 10.3667 10.0792C10.1545 10.0792 9.951 10.1635 9.80097 10.3135L6.99188 13.1226C6.67946 13.4351 6.67946 13.9416 6.99188 14.254C7.3043 14.5664 7.81083 14.5664 8.12325 14.254L10.3667 12.0106L11.9078 13.5517C12.0578 13.7018 12.2613 13.7861 12.4735 13.7861C12.6857 13.7861 12.8891 13.7018 13.0392 13.5517L14.8337 11.7572V12.2838C14.8337 12.7256 15.1919 13.0838 15.6337 13.0838C16.0755 13.0838 16.4337 12.7256 16.4337 12.2838V9.82583C16.4337 9.384 16.0755 9.02583 15.6337 9.02583H13.5269C13.0851 9.02583 12.7269 9.384 12.7269 9.82583Z"
        fill="currentColor" />
    <path fill-rule="evenodd" clip-rule="evenodd"
        d="M11.9087 1.44995C6.08137 1.44995 1.35742 6.1739 1.35742 12.0012C1.35742 17.8285 6.08137 22.5524 11.9087 22.5524C17.736 22.5524 22.4599 17.8285 22.4599 12.0012C22.4599 6.1739 17.736 1.44995 11.9087 1.44995ZM2.95742 12.0012C2.95742 7.05756 6.96503 3.04995 11.9087 3.04995C16.8523 3.04995 20.8599 7.05756 20.8599 12.0012C20.8599 16.9448 16.8523 20.9524 11.9087 20.9524C6.96503 20.9524 2.95742 16.9448 2.95742 12.0012Z"
        fill="currentColor" />
</svg>