<svg xmlns="http://www.w3.org/2000/svg" width="24" height="24" viewBox="0 0 24 24" fill="none">
    <path fill-rule="evenodd" clip-rule="evenodd"
        d="M7.0002 2.79995C6.33745 2.79995 5.8002 3.33721 5.8002 3.99995V20C5.8002 20.6627 6.33745 21.2 7.0002 21.2H15.0002C15.6629 21.2 16.2002 20.6627 16.2002 20V18C16.2002 17.5581 16.5584 17.2 17.0002 17.2C17.442 17.2 17.8002 17.5581 17.8002 18V20C17.8002 21.5463 16.5466 22.7999 15.0002 22.7999H7.0002C5.4538 22.7999 4.2002 21.5463 4.2002 20V3.99995C4.2002 2.45355 5.4538 1.19995 7.0002 1.19995H15.0002C16.5466 1.19995 17.8002 2.45355 17.8002 3.99995V4.49995C17.8002 4.94178 17.442 5.29995 17.0002 5.29995C16.5584 5.29995 16.2002 4.94178 16.2002 4.49995V3.99995C16.2002 3.33721 15.6629 2.79995 15.0002 2.79995H13.8002V2.99995C13.8002 3.44178 13.442 3.79995 13.0002 3.79995H9.0002C8.55837 3.79995 8.2002 3.44178 8.2002 2.99995V2.79995H7.0002ZM6.7002 19.5C6.7002 19.0581 7.05837 18.7 7.5002 18.7H14.5002C14.942 18.7 15.3002 19.0581 15.3002 19.5C15.3002 19.9418 14.942 20.2999 14.5002 20.2999H7.5002C7.05837 20.2999 6.7002 19.9418 6.7002 19.5Z"
        fill="currentColor" />
    <path fill-rule="evenodd" clip-rule="evenodd"
        d="M17.8837 6.99995C17.835 7.45597 17.458 7.81078 17.0002 7.81078C16.5424 7.81078 16.1654 7.45597 16.1166 6.99996C15.3141 7.18545 14.6029 7.61823 14.0633 8.21611C14.4236 8.48753 14.5346 8.9992 14.3058 9.40536C14.0769 9.81185 13.5886 9.9691 13.1789 9.78428C13.0628 10.1684 13.0002 10.5767 13.0002 11C13.0002 11.4232 13.0628 11.8315 13.1789 12.2156C13.3467 12.1399 13.5276 12.1216 13.6985 12.1543C13.945 12.2014 14.1706 12.3545 14.3057 12.5945C14.5345 13.0007 14.4235 13.5123 14.0633 13.7837C14.6029 14.3816 15.3141 14.8144 16.1166 14.9999C16.1366 14.8132 16.2116 14.6434 16.3247 14.508C16.4877 14.3128 16.7298 14.1891 17.0002 14.1891C17.458 14.1891 17.835 14.5439 17.8837 15C18.6863 14.8145 19.3974 14.3817 19.937 13.7839C19.7895 13.6728 19.6838 13.5215 19.6261 13.3537C19.5427 13.1114 19.5592 12.8345 19.6944 12.5945C19.9234 12.188 20.4118 12.0308 20.8215 12.2157C20.9376 11.8315 21.0002 11.4232 21.0002 11C21.0002 10.5766 20.9376 10.1683 20.8214 9.78418C20.4117 9.96916 19.9233 9.81192 19.6943 9.40537C19.4655 8.99914 19.5765 8.48739 19.937 8.216C19.3974 7.61817 18.6862 7.18543 17.8837 6.99995ZM18.3335 11C18.3335 11.7548 17.7366 12.3667 17.0002 12.3667C16.2638 12.3667 15.6669 11.7548 15.6669 11C15.6669 10.6608 15.7874 10.3505 15.9869 10.1115C16.2315 9.81873 16.5947 9.63316 17.0002 9.63316C17.7366 9.63316 18.3335 10.2451 18.3335 11Z"
        fill="currentColor" />
</svg>