<svg xmlns="http://www.w3.org/2000/svg" width="24" height="24" viewBox="0 0 24 24" fill="none">
    <path fill-rule="evenodd" clip-rule="evenodd"
        d="M15.0582 2.07125C15.2667 2.13611 15.4396 2.28337 15.5368 2.47888L16.8954 5.2101L19.8321 5.6235C20.1302 5.66546 20.3795 5.8712 20.4773 6.15591C20.575 6.44063 20.5047 6.75611 20.2952 6.97232L12.2079 15.3206C12.0572 15.4762 11.8499 15.564 11.6333 15.564C11.4167 15.564 11.2094 15.4762 11.0587 15.3206L8.81708 13.0066C8.50966 12.6893 8.5177 12.1828 8.83504 11.8754C9.15238 11.568 9.65885 11.576 9.96627 11.8934L11.6333 13.6142L18.0517 6.98865L16.2552 6.73575C15.9941 6.699 15.7678 6.53593 15.6504 6.29984L14.4768 3.94039L12.2262 5.18791C11.9912 5.31819 11.7064 5.32176 11.4682 5.19742L9.18827 4.00747L8.07085 6.39725C7.95932 6.63579 7.73753 6.80417 7.47778 6.8475L4.93151 7.2722L5.39402 9.91653C5.438 10.168 5.35935 10.4253 5.18231 10.6092L3.34375 12.519L5.22693 14.3809C5.4086 14.5605 5.49356 14.8161 5.45557 15.0687L5.05652 17.723L7.61079 18.0826C7.8719 18.1194 8.09813 18.2824 8.21556 18.5185L9.38916 20.878L11.6398 19.6305C11.8748 19.5002 12.1595 19.4966 12.3978 19.6209L14.6777 20.8109L15.7951 18.4211C15.9066 18.1826 16.1284 18.0142 16.3882 17.9709L18.9345 17.5462L18.4719 14.9018C18.428 14.6504 18.5066 14.393 18.6837 14.2092L20.5283 12.293L19.2926 11.0434C18.9819 10.7292 18.9847 10.2227 19.2989 9.91201C19.6131 9.60134 20.1196 9.60417 20.4303 9.91833L22.2149 11.723C22.5202 12.0317 22.5235 12.5276 22.2224 12.8404L20.118 15.0262L20.6495 18.0648C20.6862 18.2748 20.6375 18.4909 20.5143 18.6649C20.391 18.839 20.2034 18.9566 19.993 18.9917L17.0663 19.4799L15.7731 22.2456C15.6807 22.4433 15.5115 22.5947 15.3048 22.6646C15.098 22.7345 14.8717 22.717 14.6782 22.616L12.039 21.2385L9.43325 22.6829C9.24227 22.7888 9.01631 22.812 8.80781 22.7471C8.5993 22.6823 8.42636 22.535 8.32912 22.3395L6.9706 19.6083L4.03384 19.1949C3.82245 19.1651 3.63173 19.0521 3.50409 18.881C3.37646 18.7099 3.32251 18.4948 3.35425 18.2837L3.81292 15.2329L1.65745 13.1017C1.34622 12.794 1.34005 12.2933 1.6436 11.978L3.74797 9.79212L3.21651 6.75359C3.17976 6.54351 3.22842 6.32746 3.35167 6.15342C3.47493 5.97937 3.66257 5.86175 3.87293 5.82666L6.79964 5.3385L8.09287 2.57272C8.1853 2.37504 8.35449 2.22369 8.56121 2.15376C8.76793 2.08383 8.99425 2.10139 9.18772 2.20236L11.8269 3.57985L14.4327 2.13546C14.6237 2.0296 14.8497 2.0064 15.0582 2.07125Z"
        fill="currentColor" />
</svg>