<svg xmlns="http://www.w3.org/2000/svg" width="24" height="24" viewBox="0 0 24 24" fill="none">
    <path
        d="M12.7661 8.47585C12.8805 8.04908 13.3191 7.79581 13.7459 7.91016L17.6096 8.94544C18.0364 9.05979 18.2897 9.49846 18.1753 9.92524C18.061 10.352 17.6223 10.6053 17.1955 10.4909L13.3318 9.45565C12.905 9.34129 12.6518 8.90262 12.7661 8.47585Z"
        fill="currentColor" />
    <path
        d="M12.9693 10.8079C12.5425 10.6936 12.1039 10.9469 11.9895 11.3736C11.8752 11.8004 12.1284 12.2391 12.5552 12.3534L16.4189 13.3887C16.8457 13.5031 17.2843 13.2498 17.3987 12.823C17.513 12.3962 17.2598 11.9576 16.833 11.8432L12.9693 10.8079Z"
        fill="currentColor" />
    <path fill-rule="evenodd" clip-rule="evenodd"
        d="M14.7754 20.2305L9.46948 22.7047C8.06797 23.3582 6.40202 22.7519 5.74849 21.3504L0.677069 10.4747C0.0235332 9.07317 0.629888 7.40723 2.0314 6.75369L9.28186 3.37274C9.45094 3.2939 9.62386 3.2334 9.79839 3.19041C10.3287 1.91329 11.7359 1.19525 13.108 1.5629L20.8354 3.63345C22.3291 4.03369 23.2155 5.56903 22.8153 7.06274L19.7095 18.6538C19.3092 20.1476 17.7739 21.034 16.2802 20.6337L14.7754 20.2305ZM9.24685 5.15448L2.70759 8.20378C2.10694 8.48387 1.84707 9.19785 2.12716 9.79849L7.19858 20.6742C7.47867 21.2748 8.19264 21.5347 8.79329 21.2546L12.371 19.5863L8.55277 18.5632C7.05906 18.163 6.17263 16.6276 6.57287 15.1339L7.55753 11.4591L6.63326 11.8901C6.23282 12.0768 5.75684 11.9036 5.57011 11.5031C5.38339 11.1027 5.55663 10.6267 5.95707 10.44L8.09812 9.4416L9.24685 5.15448ZM11.2242 3.95691C11.3957 3.31675 12.0537 2.93685 12.6939 3.10838L20.4213 5.17893C21.0614 5.35046 21.4413 6.00847 21.2698 6.64863L18.164 18.2397C17.9924 18.8799 17.3344 19.2598 16.6943 19.0883L8.96688 17.0177C8.32672 16.8462 7.94682 16.1882 8.11835 15.548L11.2242 3.95691Z"
        fill="currentColor" />
</svg>