<svg xmlns="http://www.w3.org/2000/svg" width="24" height="24" viewBox="0 0 24 24" fill="none">
    <path
        d="M7.99995 10.2003C7.55812 10.2003 7.19995 10.5585 7.19995 11.0003C7.19995 11.4421 7.55812 11.8003 7.99995 11.8003H16C16.4418 11.8003 16.8 11.4421 16.8 11.0003C16.8 10.5585 16.4418 10.2003 16 10.2003H7.99995Z"
        fill="currentColor" />
    <path
        d="M7.99995 13.2002C7.55812 13.2002 7.19995 13.5584 7.19995 14.0002C7.19995 14.442 7.55812 14.8002 7.99995 14.8002H16C16.4418 14.8002 16.8 14.442 16.8 14.0002C16.8 13.5584 16.4418 13.2002 16 13.2002H7.99995Z"
        fill="currentColor" />
    <path
        d="M7.99995 16.2002C7.55812 16.2002 7.19995 16.5584 7.19995 17.0002C7.19995 17.442 7.55812 17.8002 7.99995 17.8002H13C13.4418 17.8002 13.8 17.442 13.8 17.0002C13.8 16.5584 13.4418 16.2002 13 16.2002H7.99995Z"
        fill="currentColor" />
    <path fill-rule="evenodd" clip-rule="evenodd"
        d="M5.99995 4.2002H7.38706C7.6816 3.60751 8.29321 3.2002 8.99995 3.2002H9.3159C9.66012 2.0436 10.7315 1.2002 12 1.2002C13.2684 1.2002 14.3398 2.0436 14.684 3.2002H15C15.7067 3.2002 16.3183 3.60751 16.6128 4.2002H18C19.5463 4.2002 20.7999 5.4538 20.7999 7.0002V20.0002C20.7999 21.5466 19.5463 22.8002 18 22.8002H5.99995C4.45355 22.8002 3.19995 21.5466 3.19995 20.0002V7.0002C3.19995 5.4538 4.45355 4.2002 5.99995 4.2002ZM10.8 4.0002C10.8 3.33745 11.3372 2.8002 12 2.8002C12.6627 2.8002 13.2 3.33745 13.2 4.0002C13.2 4.44202 13.5581 4.8002 14 4.8002H15C15.1104 4.8002 15.2 4.88974 15.2 5.0002V6.2002H8.79995V5.0002C8.79995 4.88974 8.88949 4.8002 8.99995 4.8002H9.99995C10.4418 4.8002 10.8 4.44202 10.8 4.0002ZM16.8 7.0002V5.8002H18C18.6627 5.8002 19.2 6.33745 19.2 7.0002V20.0002C19.2 20.6629 18.6627 21.2002 18 21.2002H5.99995C5.33721 21.2002 4.79995 20.6629 4.79995 20.0002V7.0002C4.79995 6.33745 5.33721 5.8002 5.99995 5.8002H7.19995V7.0002C7.19995 7.44202 7.55812 7.8002 7.99995 7.8002H16C16.4418 7.8002 16.8 7.44202 16.8 7.0002Z"
        fill="currentColor" />
</svg>