<svg xmlns="http://www.w3.org/2000/svg" width="24" height="24" viewBox="0 0 24 24" fill="none">
    <path
        d="M16.5647 11.5658C16.8771 11.2534 16.8771 10.7469 16.5647 10.4344C16.2523 10.122 15.7458 10.122 15.4333 10.4344L10.4991 15.3687L8.56468 13.4344C8.25225 13.122 7.74571 13.122 7.43331 13.4345C7.12091 13.7469 7.12093 14.2534 7.43337 14.5658L9.93349 17.0657C10.2459 17.3781 10.7524 17.3781 11.0648 17.0657L16.5647 11.5658Z"
        fill="currentColor" />
    <path fill-rule="evenodd" clip-rule="evenodd"
        d="M5.99922 4.19995H7.38632C7.68086 3.60726 8.29247 3.19995 8.99922 3.19995H9.31517C9.65939 2.04336 10.7308 1.19995 11.9992 1.19995C13.2676 1.19995 14.339 2.04336 14.6833 3.19995H14.9992C15.706 3.19995 16.3176 3.60726 16.6121 4.19995H17.9992C19.5456 4.19995 20.7992 5.45355 20.7992 6.99995V20C20.7992 21.5463 19.5456 22.7999 17.9992 22.7999H5.99922C4.45282 22.7999 3.19922 21.5463 3.19922 20V6.99995C3.19922 5.45355 4.45282 4.19995 5.99922 4.19995ZM10.7992 3.99995C10.7992 3.33721 11.3365 2.79995 11.9992 2.79995C12.662 2.79995 13.1992 3.33721 13.1992 3.99995C13.1992 4.44178 13.5574 4.79995 13.9992 4.79995H14.9992C15.1097 4.79995 15.1992 4.88949 15.1992 4.99995V6.19995H8.79922V4.99995C8.79922 4.88949 8.88876 4.79995 8.99922 4.79995H9.99922C10.441 4.79995 10.7992 4.44178 10.7992 3.99995ZM16.7992 6.99995V5.79995H17.9992C18.662 5.79995 19.1992 6.33721 19.1992 6.99995V20C19.1992 20.6627 18.662 21.2 17.9992 21.2H5.99922C5.33648 21.2 4.79922 20.6627 4.79922 20V6.99995C4.79922 6.33721 5.33648 5.79995 5.99922 5.79995H7.19922V6.99995C7.19922 7.44178 7.55739 7.79995 7.99922 7.79995H15.9992C16.441 7.79995 16.7992 7.44178 16.7992 6.99995Z"
        fill="currentColor" />
</svg>