<svg xmlns="http://www.w3.org/2000/svg" width="24" height="24" viewBox="0 0 24 24" fill="none">
    <path fill-rule="evenodd" clip-rule="evenodd"
        d="M0.967219 10.6655C0.969126 5.83165 4.90085 1.8999 9.7338 1.8999C12.077 1.90086 14.281 2.81479 15.9352 4.47086C17.0373 5.57416 17.8099 6.92124 18.2026 8.38984C21.0855 9.56558 22.8619 12.6436 22.2987 15.838L22.2983 15.8404C22.1201 16.8487 21.7174 17.8018 21.1238 18.6268L21.3635 21.586C21.3866 21.8709 21.2559 22.1465 21.0207 22.3089C20.7855 22.4713 20.4815 22.4959 20.2232 22.3734L17.6277 21.142C16.6099 21.4565 15.5305 21.5246 14.4735 21.3377C13.0161 21.0802 11.7513 20.3689 10.7969 19.3745C10.4484 19.4168 10.0936 19.4386 9.73386 19.4386H9.73063C8.37251 19.4381 7.03557 19.1226 5.82787 18.5211L1.90339 19.5506C1.62691 19.6231 1.33274 19.5426 1.13171 19.3394C0.930673 19.1362 0.853325 18.8412 0.928804 18.5655L1.97333 14.7503C1.3126 13.4948 0.966599 12.0954 0.967219 10.6655ZM9.68794 17.8384C9.00818 16.5515 8.7349 15.0366 9.00683 13.4944C9.32172 11.7128 10.3095 10.1571 11.7859 9.11927C13.1317 8.17323 14.742 7.75684 16.3606 7.92813C16.0055 7.06891 15.4808 6.27989 14.8032 5.6016C13.4493 4.24611 11.6527 3.50077 9.7338 3.4999C5.78486 3.50008 2.56876 6.71535 2.56722 10.6661C2.56667 11.9302 2.89679 13.1626 3.52353 14.2487C3.6303 14.4337 3.65864 14.6538 3.60223 14.8598L2.83798 17.6513L5.72061 16.8951C5.91794 16.8433 6.12758 16.8689 6.30667 16.9666C7.34007 17.5303 8.5029 17.831 9.68794 17.8384ZM14.7519 19.7622C11.9618 19.2691 10.0869 16.584 10.5825 13.7725C10.824 12.4063 11.577 11.2219 12.706 10.4282C13.8351 9.63454 15.1986 9.33085 16.5532 9.57021C19.3436 10.0634 21.2187 12.749 20.723 15.5602L20.7226 15.5623C20.5717 16.4162 20.2105 17.2173 19.6757 17.8898C19.5493 18.0487 19.488 18.2499 19.5044 18.4523L19.6568 20.3337L18.0217 19.5579C17.8279 19.466 17.6052 19.4557 17.4038 19.5295C16.5576 19.8392 15.6453 19.9201 14.7519 19.7622Z"
        fill="currentColor" />
</svg>