<svg xmlns="http://www.w3.org/2000/svg" width="24" height="24" viewBox="0 0 24 24" fill="none">
    <path
        d="M6.8002 4.0002C6.8002 3.33745 7.33745 2.8002 8.0002 2.8002H9.2002V3.0002C9.2002 3.44202 9.55837 3.8002 10.0002 3.8002H14.0002C14.442 3.8002 14.8002 3.44202 14.8002 3.0002V2.8002H16.0002C16.6629 2.8002 17.2002 3.33745 17.2002 4.0002V5.5002C17.2002 5.94202 17.5584 6.3002 18.0002 6.3002C18.442 6.3002 18.8002 5.94202 18.8002 5.5002V4.0002C18.8002 2.4538 17.5466 1.2002 16.0002 1.2002H8.0002C6.4538 1.2002 5.2002 2.4538 5.2002 4.0002V20.0002C5.2002 21.5466 6.4538 22.8002 8.0002 22.8002H16.0002C17.5466 22.8002 18.8002 21.5466 18.8002 20.0002V19.5002C18.8002 19.0584 18.442 18.7002 18.0002 18.7002C17.5584 18.7002 17.2002 19.0584 17.2002 19.5002V20.0002C17.2002 20.6629 16.6629 21.2002 16.0002 21.2002H8.0002C7.33745 21.2002 6.8002 20.6629 6.8002 20.0002V4.0002Z"
        fill="currentColor" />
    <path fill-rule="evenodd" clip-rule="evenodd"
        d="M22.2759 8.58569C21.2552 7.56383 19.8979 7.00084 18.4517 7.00024C15.4719 7.00024 13.0467 9.42528 13.0455 12.406C13.0451 13.3588 13.2941 14.2888 13.7672 15.1087L13.0002 17.9101L15.8661 17.1583C16.6557 17.589 17.5447 17.816 18.4495 17.8163H18.4517C21.4312 17.8163 23.8566 15.3911 23.8579 12.4103C23.8584 10.9658 23.3645 9.7277 22.2759 8.58569ZM18.7591 9.05551C19.0461 9.18324 19.1969 9.48782 19.1671 9.80029L19.0268 11.4629L20.1589 11.9847L20.1895 12.0057C20.5139 12.228 20.5694 12.6619 20.4189 12.9643L19.0971 15.6204C19.0242 15.767 18.9038 15.8937 18.7376 15.958C18.5728 16.0219 18.401 16.0093 18.2574 15.9468C17.969 15.8212 17.8137 15.517 17.8431 15.2011L17.9857 13.4734L16.8924 12.9494L16.8618 12.9276C16.5538 12.7084 16.494 12.2937 16.6343 11.9946C16.9904 11.2357 17.521 10.1688 17.9191 9.37687C17.9921 9.23158 18.1122 9.10535 18.2786 9.04151C18.4439 8.97807 18.6159 8.99173 18.7591 9.05551Z"
        fill="currentColor" />
</svg>