<svg xmlns="http://www.w3.org/2000/svg" width="25" height="24" viewBox="0 0 25 24" fill="none">
    <path fill-rule="evenodd" clip-rule="evenodd"
        d="M9.77887 9.52972C10.4746 8.71707 11.5106 8.2 12.6665 8.2C14.7651 8.2 16.4665 9.90131 16.4665 12C16.4665 14.0987 14.7651 15.8 12.6665 15.8C10.5678 15.8 8.86646 14.0987 8.86646 12C8.86646 11.0576 9.21052 10.1936 9.77887 9.52972ZM12.6665 9.8C11.9976 9.8 11.399 10.0975 10.9943 10.5703C10.6647 10.9552 10.4665 11.4534 10.4665 12C10.4665 13.215 11.4514 14.2 12.6665 14.2C13.8815 14.2 14.8665 13.215 14.8665 12C14.8665 10.785 13.8815 9.8 12.6665 9.8Z"
        fill="currentColor" />
    <path fill-rule="evenodd" clip-rule="evenodd"
        d="M14.1896 2.56917C14.3751 2.4368 14.6081 2.38977 14.8304 2.43988C16.7982 2.88356 18.5404 3.9184 19.8614 5.34614C20.0161 5.51341 20.0922 5.73875 20.0705 5.9656C20.0488 6.19245 19.9314 6.39928 19.7478 6.53419C19.2619 6.89109 19.1124 7.56549 19.421 8.1C19.7299 8.63496 20.3895 8.84261 20.9418 8.59934C21.1505 8.50741 21.3885 8.50893 21.596 8.60351C21.8035 8.69809 21.9608 8.87674 22.0284 9.09457C22.3133 10.0136 22.4665 10.9897 22.4665 12C22.4665 13.0103 22.3133 13.9863 22.0284 14.9053C21.9609 15.1231 21.8036 15.3018 21.5961 15.3964C21.3886 15.491 21.1506 15.4925 20.9419 15.4006C20.3896 15.1574 19.7301 15.3651 19.4212 15.9C19.2389 16.2159 19.2159 16.5792 19.3291 16.9001C19.4074 17.1219 19.5498 17.3202 19.7479 17.4657C19.9315 17.6007 20.0489 17.8075 20.0706 18.0343C20.0923 18.2612 20.0162 18.4865 19.8615 18.6537C18.5405 20.0815 16.7983 21.1164 14.8304 21.5601C14.6081 21.6102 14.3751 21.5632 14.1896 21.4308C14.0042 21.2985 13.884 21.0933 13.8592 20.8668C13.7935 20.2671 13.284 19.8 12.6664 19.8C12.3017 19.8 11.9755 19.9618 11.7542 20.2203C11.601 20.3992 11.5005 20.622 11.4737 20.8668C11.4488 21.0933 11.3286 21.2984 11.1432 21.4308C10.9578 21.5632 10.7247 21.6102 10.5025 21.5601C8.53445 21.1164 6.79216 20.0814 5.47118 18.6535C5.31646 18.4862 5.24039 18.261 5.26205 18.0341C5.28372 17.8073 5.40106 17.6005 5.58464 17.4656C6.0703 17.1086 6.21964 16.4344 5.9111 15.9C5.72872 15.5841 5.42556 15.3826 5.09103 15.3201C4.85948 15.2769 4.61619 15.3013 4.39076 15.4005C4.18206 15.4923 3.94409 15.4907 3.73664 15.3961C3.52918 15.3015 3.37195 15.1229 3.30444 14.9051C3.01958 13.9862 2.86646 13.0102 2.86646 12C2.86646 10.9897 3.01959 10.0138 3.30447 9.0948C3.37198 8.877 3.52923 8.69836 3.73671 8.60377C3.94418 8.50917 4.18217 8.50761 4.39087 8.59946C4.94311 8.84253 5.60253 8.63485 5.91133 8.09999C6.21989 7.56555 6.07052 6.89127 5.58479 6.53433C5.40118 6.39941 5.28382 6.19259 5.26215 5.96577C5.24048 5.73895 5.31655 5.51365 5.47128 5.3464C6.79225 3.91855 8.5345 2.88362 10.5025 2.4399C10.7247 2.38979 10.9578 2.43682 11.1432 2.56918C11.3286 2.70155 11.4488 2.9067 11.4737 3.13317C11.5394 3.73287 12.0489 4.2 12.6664 4.2C13.284 4.2 13.7935 3.73286 13.8592 3.13316C13.884 2.90669 14.0042 2.70154 14.1896 2.56917ZM15.1978 4.19793C14.7488 5.14518 13.7844 5.8 12.6664 5.8C11.5484 5.8 10.5841 5.14519 10.1351 4.19795C9.02751 4.55704 8.02255 5.14581 7.17661 5.90878C7.7712 6.77102 7.85553 7.93255 7.29697 8.89999C6.73811 9.86797 5.68918 10.3757 4.64459 10.2912C4.52792 10.8419 4.46646 11.4134 4.46646 12C4.46646 12.5866 4.52792 13.1581 4.64459 13.7088C4.89342 13.6886 5.14232 13.7021 5.38445 13.7473C6.15886 13.8918 6.87086 14.3624 7.29674 15.1C7.85526 16.0674 7.77097 17.2289 7.17647 18.0911C8.02244 18.8541 9.02747 19.4429 10.1351 19.802C10.2422 19.5762 10.3784 19.3671 10.5388 19.1797C11.0511 18.5813 11.8147 18.2 12.6664 18.2C13.7844 18.2 14.7488 18.8548 15.1978 19.8021C16.3053 19.443 17.3102 18.8543 18.1561 18.0914C18.0146 17.8862 17.9021 17.6643 17.8203 17.4324C17.5582 16.6895 17.6097 15.8376 18.0356 15.1C18.5945 14.1319 19.6436 13.6241 20.6883 13.7088C20.805 13.1581 20.8665 12.5866 20.8665 12C20.8665 11.4134 20.805 10.8418 20.6883 10.2912C19.6435 10.3759 18.5943 9.86815 18.0354 8.9C17.4768 7.93244 17.5612 6.77074 18.156 5.90847C17.3101 5.14564 16.3052 4.55697 15.1978 4.19793Z"
        fill="currentColor" />
</svg>