<svg xmlns="http://www.w3.org/2000/svg" width="24" height="24" viewBox="0 0 24 24" fill="none">
    <path
        d="M14.8807 10.1343C14.3781 10.1947 13.9998 10.621 13.9998 11.1272V15C13.9998 15.5523 14.4475 16 14.9998 16C15.5521 16 15.9998 15.5523 15.9998 15V11.1272C15.9998 10.5277 15.4759 10.0629 14.8807 10.1343Z"
        fill="currentColor" />
    <path
        d="M10.9998 12.5941C10.9998 12.0765 11.3947 11.6445 11.9102 11.5981C12.4955 11.5454 12.9998 12.0064 12.9998 12.5941V15C12.9998 15.5523 12.5521 16 11.9998 16C11.4475 16 10.9998 15.5523 10.9998 15V12.5941Z"
        fill="currentColor" />
    <path
        d="M8.93991 13.0636C8.41184 13.0953 7.9998 13.5328 7.9998 14.0618V15C7.9998 15.5523 8.44752 16 8.9998 16C9.55209 16 9.9998 15.5523 9.9998 15V14.0618C9.9998 13.486 9.51471 13.0292 8.93991 13.0636Z"
        fill="currentColor" />
    <path fill-rule="evenodd" clip-rule="evenodd"
        d="M4.2998 5.00005C4.2998 3.50888 5.50864 2.30005 6.9998 2.30005H16.9998C18.491 2.30005 19.6998 3.50888 19.6998 5.00005V5.39167C20.8516 5.70001 21.6998 6.75098 21.6998 8.00005V18C21.6998 19.4912 20.491 20.7 18.9998 20.7H4.9998C3.50864 20.7 2.2998 19.4912 2.2998 18V8.00005C2.2998 6.75098 3.14798 5.70001 4.2998 5.39167V5.00005ZM18.2998 5.00005V5.30005H5.6998V5.00005C5.6998 4.28208 6.28183 3.70005 6.9998 3.70005H16.9998C17.7178 3.70005 18.2998 4.28208 18.2998 5.00005ZM3.6998 8.00005C3.6998 7.28208 4.28183 6.70005 4.9998 6.70005H18.9998C19.7178 6.70005 20.2998 7.28208 20.2998 8.00005V18C20.2998 18.718 19.7178 19.3 18.9998 19.3H4.9998C4.28183 19.3 3.6998 18.718 3.6998 18V8.00005Z"
        fill="currentColor" />
</svg>