<svg xmlns="http://www.w3.org/2000/svg" width="24" height="24" viewBox="0 0 24 24" fill="none">
    <path fill-rule="evenodd" clip-rule="evenodd"
        d="M11.9992 22.8C17.9639 22.8 22.7992 17.9646 22.7992 12C22.7992 6.03528 17.9639 1.19995 11.9992 1.19995C6.03454 1.19995 1.19922 6.03528 1.19922 12C1.19922 17.9646 6.03454 22.8 11.9992 22.8ZM11.9992 2.79995C11.7378 2.79995 11.4078 2.92912 11.0235 3.33549C10.6376 3.74355 10.2532 4.37695 9.91357 5.226C9.6003 6.00917 9.33847 6.94224 9.14749 7.98467C10.0403 8.12359 10.9975 8.19995 11.9992 8.19995C13.001 8.19995 13.9582 8.12359 14.8509 7.98467C14.66 6.94224 14.3981 6.00917 14.0849 5.226C13.7452 4.37695 13.3609 3.74355 12.975 3.33549C12.5906 2.92912 12.2607 2.79995 11.9992 2.79995ZM15.076 9.56857C14.0956 9.71996 13.0616 9.79995 11.9992 9.79995C10.9368 9.79995 9.90289 9.71996 8.92239 9.56857C8.8423 10.3419 8.79922 11.1566 8.79922 12C8.79922 12.8433 8.8423 13.658 8.92239 14.4313C9.90289 14.2799 10.9368 14.2 11.9992 14.2C13.0616 14.2 14.0956 14.2799 15.076 14.4313C15.1561 13.658 15.1992 12.8433 15.1992 12C15.1992 11.1566 15.1561 10.3419 15.076 9.56857ZM16.6514 14.747C16.7481 13.8683 16.7992 12.947 16.7992 12C16.7992 11.0529 16.7481 10.1316 16.6514 9.25287C18.0098 8.91414 19.2195 8.42808 20.1985 7.82289C20.8384 9.07639 21.1992 10.496 21.1992 12C21.1992 13.5039 20.8384 14.9235 20.1985 16.177C19.2195 15.5718 18.0098 15.0858 16.6514 14.747ZM14.8509 16.0152C13.9582 15.8763 13.001 15.8 11.9992 15.8C10.9975 15.8 10.0403 15.8763 9.14749 16.0152C9.33847 17.0577 9.6003 17.9907 9.91357 18.7739C10.2532 19.6229 10.6376 20.2564 11.0235 20.6644C11.4078 21.0708 11.7378 21.2 11.9992 21.2C12.2607 21.2 12.5906 21.0708 12.975 20.6644C13.3609 20.2564 13.7452 19.6229 14.0849 18.7739C14.3981 17.9907 14.66 17.0577 14.8509 16.0152ZM14.905 20.7316C15.1514 20.32 15.3732 19.8612 15.5704 19.3681C15.9231 18.4865 16.2104 17.4623 16.4183 16.3387C17.5714 16.6398 18.5679 17.0515 19.3498 17.5334C18.2383 19.0076 16.6936 20.1367 14.905 20.7316ZM9.09341 20.7316C8.84701 20.32 8.62522 19.8611 8.42801 19.3681C8.07535 18.4865 7.78804 17.4623 7.58016 16.3387C6.42703 16.6398 5.43053 17.0515 4.64868 17.5334C5.76016 19.0076 7.30481 20.1367 9.09341 20.7316ZM7.34704 14.747C7.25031 13.8683 7.19922 12.947 7.19922 12C7.19922 11.0529 7.25031 10.1316 7.34704 9.25287C5.98867 8.91414 4.77897 8.42808 3.79994 7.8229C3.16008 9.07639 2.79922 10.496 2.79922 12C2.79922 13.5039 3.16008 14.9235 3.79994 16.177C4.77897 15.5718 5.98867 15.0858 7.34704 14.747ZM7.58016 7.66119C7.78804 6.53756 8.07535 5.51342 8.42801 4.63177C8.62522 4.13875 8.847 3.67986 9.09341 3.26827C7.3048 3.86321 5.76016 4.99235 4.64868 6.46648C5.43053 6.94837 6.42703 7.36008 7.58016 7.66119ZM14.905 3.26827C16.6936 3.86321 18.2383 4.99235 19.3498 6.46648C18.5679 6.94837 17.5714 7.36008 16.4183 7.66119C16.2104 6.53756 15.9231 5.51342 15.5704 4.63177C15.3732 4.13875 15.1514 3.67986 14.905 3.26827Z"
        fill="currentColor" />
</svg>