<svg xmlns="http://www.w3.org/2000/svg" width="24" height="24" viewBox="0 0 24 24" fill="none">
    <g clip-path="url(#clip0_11_9224)">
        <path fill-rule="evenodd" clip-rule="evenodd"
            d="M13.0265 6.73579C15.0198 6.73579 16.6356 8.35166 16.6356 10.3449C16.6356 12.3382 15.0198 13.9541 13.0265 13.9541C11.0332 13.9541 9.41737 12.3382 9.41737 10.3449C9.41737 8.35166 11.0332 6.73579 13.0265 6.73579ZM15.0356 10.3449C15.0356 9.23531 14.1361 8.33579 13.0265 8.33579C11.9169 8.33579 11.0174 9.23531 11.0174 10.3449C11.0174 11.4545 11.9169 12.3541 13.0265 12.3541C14.1361 12.3541 15.0356 11.4545 15.0356 10.3449Z"
            fill="currentColor" />
        <path fill-rule="evenodd" clip-rule="evenodd"
            d="M9.39511 22.7932C10.2305 22.9941 11.1026 23.1005 11.9996 23.1005C15.4358 23.1005 18.5073 21.5391 20.5434 19.0872C20.5657 19.0665 20.587 19.0443 20.6073 19.0207C20.6368 18.9862 20.6629 18.9499 20.6856 18.9123C22.1967 17.0159 23.0997 14.6136 23.0997 12.0003C23.0997 5.86986 18.13 0.900146 11.9996 0.900146C5.86913 0.900146 0.899414 5.86986 0.899414 12.0003C0.899414 17.1708 4.43463 21.5157 9.21981 22.7496C9.27556 22.7704 9.33426 22.7852 9.39511 22.7932ZM2.49941 12.0003C2.49941 6.75352 6.75278 2.50015 11.9996 2.50015C17.2464 2.50015 21.4998 6.75352 21.4998 12.0003C21.4998 13.9759 20.8967 15.8106 19.8647 17.3305L18.144 15.8556C17.274 15.1099 16.166 14.7 15.0202 14.7H10.8332C10.1409 14.7 9.46714 14.4755 8.91324 14.06L7.5799 13.06C6.77412 12.4557 6.2999 11.5072 6.2999 10.5V8.00002C6.2999 7.5582 5.94173 7.20002 5.4999 7.20002C5.05807 7.20002 4.6999 7.5582 4.6999 8.00002V10.5C4.6999 12.0109 5.41123 13.4335 6.6199 14.34L7.95324 15.34C8.18892 15.5168 8.43906 15.6705 8.7002 15.8V20.9119C5.07982 19.571 2.49941 16.087 2.49941 12.0003ZM10.3002 21.3489V16.2703C10.4765 16.29 10.6545 16.3 10.8332 16.3H15.0202C15.2504 16.3 15.4783 16.3248 15.7002 16.3731V20.7528C14.5629 21.2342 13.3123 21.5005 11.9996 21.5005C11.4195 21.5005 10.8516 21.4485 10.3002 21.3489ZM17.3002 19.8854C17.8655 19.5047 18.3876 19.0648 18.8576 18.5746L17.3002 17.2397V19.8854Z"
            fill="currentColor" />
    </g>
    <defs>
        <clipPath id="clip0_11_9224">
            <rect width="24" height="24" fill="white" />
        </clipPath>
    </defs>
</svg>