<svg xmlns="http://www.w3.org/2000/svg" width="24" height="24" viewBox="0 0 24 24" fill="none">
    <path
        d="M14.0002 7.99995C13.4479 7.99995 13.0002 7.55222 13.0002 6.99995C13.0002 6.44768 13.4479 5.99995 14.0002 5.99995C14.5524 5.99995 15.0002 6.44768 15.0002 6.99995C15.0002 7.55222 14.5524 7.99995 14.0002 7.99995Z"
        fill="currentColor" />
    <path fill-rule="evenodd" clip-rule="evenodd"
        d="M14.0002 2.19995C11.6253 2.19995 9.2002 3.99402 9.2002 6.99995C9.2002 8.55963 10.1304 9.88079 11.0077 10.946C11.2339 11.2207 11.4668 11.4897 11.6909 11.748L11.7267 11.7891C11.9401 12.035 12.1445 12.2705 12.338 12.5034C12.7508 13.0003 13.0772 13.4429 13.2847 13.8577C13.4255 14.1395 13.7187 14.3124 14.0334 14.2993C14.3482 14.2862 14.626 14.0896 14.743 13.7971C15.0908 12.9275 15.7088 12.2868 16.4401 11.5286C16.6081 11.3544 16.782 11.1741 16.96 10.9833C17.8695 10.0089 18.8002 8.8157 18.8002 6.99995C18.8002 3.99402 16.3751 2.19995 14.0002 2.19995ZM10.8002 6.99995C10.8002 5.00588 12.3751 3.79995 14.0002 3.79995C15.6253 3.79995 17.2002 5.00588 17.2002 6.99995C17.2002 8.1842 16.6309 8.99098 15.7904 9.8916C15.6565 10.035 15.5123 10.1833 15.3623 10.3375C14.9025 10.8104 14.388 11.3395 13.9498 11.9561C13.8256 11.7945 13.6975 11.636 13.5687 11.4809C13.3637 11.2342 13.1488 10.9866 12.9383 10.7441L12.8993 10.6992C12.6742 10.4399 12.454 10.1855 12.2427 9.92889C11.37 8.86911 10.8002 7.94028 10.8002 6.99995Z"
        fill="currentColor" />
    <path
        d="M7.78008 6.17882C7.87853 6.60954 7.60917 7.03852 7.17846 7.13697L2.8002 8.13771V19.9394L8.78042 18.2307C8.92407 18.1897 9.07634 18.1897 9.21999 18.2307L15.9815 20.1627L21.1997 18.4233V6.99992C21.1997 6.55809 21.5579 6.19992 21.9997 6.19992C22.4415 6.19992 22.7997 6.55809 22.7997 6.99992V18.9999C22.7997 19.3443 22.5794 19.65 22.2527 19.7589L16.2527 21.7589C16.0997 21.8099 15.9349 21.8134 15.7799 21.7692L9.00019 19.832L2.21997 21.7692C1.9786 21.8381 1.71885 21.7898 1.51844 21.6386C1.31803 21.4874 1.2002 21.251 1.2002 20.9999V7.49994C1.2002 7.12679 1.45817 6.8032 1.82194 6.72005L6.82194 5.57719C7.25266 5.47874 7.68163 5.7481 7.78008 6.17882Z"
        fill="currentColor" />
    <path
        d="M7.50026 15C6.67183 15 6.0002 14.3284 6.0002 13.5C6.0002 12.6716 6.67183 12 7.50026 12C8.32857 12 9.0002 12.6716 9.0002 13.5C9.0002 14.3284 8.32857 15 7.50026 15Z"
        fill="currentColor" />
</svg>