<svg xmlns="http://www.w3.org/2000/svg" width="24" height="24" viewBox="0 0 24 24" fill="none">
    <path
        d="M21.5395 4.33518C21.835 4.00677 21.8084 3.50094 21.48 3.20537C21.1516 2.9098 20.6458 2.93643 20.3502 3.26484L18.1212 5.74153L17.1657 4.78605C16.8533 4.47363 16.3467 4.47363 16.0343 4.78605C15.7219 5.09847 15.7219 5.605 16.0343 5.91742L17.586 7.46914C17.7412 7.62433 17.9533 7.70895 18.1727 7.70318C18.3921 7.69741 18.5995 7.60176 18.7463 7.43863L21.5395 4.33518Z"
        fill="currentColor" />
    <path fill-rule="evenodd" clip-rule="evenodd"
        d="M4 10C4 7.90132 5.70132 6.2 7.8 6.2C9.89868 6.2 11.6 7.90132 11.6 10C11.6 12.0987 9.89868 13.8 7.8 13.8C5.70132 13.8 4 12.0987 4 10ZM7.8 7.8C6.58497 7.8 5.6 8.78497 5.6 10C5.6 11.215 6.58497 12.2 7.8 12.2C9.01503 12.2 10 11.215 10 10C10 8.78497 9.01503 7.8 7.8 7.8Z"
        fill="currentColor" />
    <path fill-rule="evenodd" clip-rule="evenodd"
        d="M16 12C16 10.4536 17.2536 9.2 18.8 9.2C20.3464 9.2 21.6 10.4536 21.6 12C21.6 13.5464 20.3464 14.8 18.8 14.8C17.2536 14.8 16 13.5464 16 12ZM18.8 10.8C18.1372 10.8 17.6 11.3373 17.6 12C17.6 12.6627 18.1372 13.2 18.8 13.2C19.4627 13.2 20 12.6627 20 12C20 11.3373 19.4627 10.8 18.8 10.8Z"
        fill="currentColor" />
    <path fill-rule="evenodd" clip-rule="evenodd"
        d="M4.8 15.2C3.2536 15.2 2 16.4536 2 18V19C2 19.9941 2.80589 20.8 3.8 20.8H11.8C12.7941 20.8 13.6 19.9941 13.6 19V18C13.6 16.4536 12.3464 15.2 10.8 15.2H4.8ZM3.6 18C3.6 17.3373 4.13726 16.8 4.8 16.8H10.8C11.4627 16.8 12 17.3373 12 18V19C12 19.1105 11.9105 19.2 11.8 19.2H3.8C3.68954 19.2 3.6 19.1105 3.6 19V18Z"
        fill="currentColor" />
    <path fill-rule="evenodd" clip-rule="evenodd"
        d="M15 19C15 17.4536 16.2536 16.2 17.8 16.2H19.8C21.3464 16.2 22.6 17.4536 22.6 19C22.6 19.9941 21.7941 20.8 20.8 20.8H16.8C15.8059 20.8 15 19.9941 15 19ZM17.8 17.8C17.1373 17.8 16.6 18.3373 16.6 19C16.6 19.1105 16.6895 19.2 16.8 19.2H20.8C20.9105 19.2 21 19.1105 21 19C21 18.3373 20.4627 17.8 19.8 17.8H17.8Z"
        fill="currentColor" />
</svg>