<svg xmlns="http://www.w3.org/2000/svg" width="24" height="24" viewBox="0 0 24 24" fill="none">
    <path
        d="M4.76544 5.53828C4.76544 5.09645 5.12361 4.73828 5.56544 4.73828H21.4339C21.8757 4.73828 22.2339 5.09645 22.2339 5.53828V14.606C22.2339 15.0478 21.8757 15.406 21.4339 15.406H20.8671C20.4253 15.406 20.0671 15.0478 20.0671 14.606C20.0671 14.2453 20.3058 13.9403 20.6339 13.8405V6.33828H6.36544V7.23847C6.36544 7.6803 6.00727 8.03847 5.56544 8.03847C5.12361 8.03847 4.76544 7.6803 4.76544 7.23847V5.53828Z"
        fill="currentColor" />
    <path fill-rule="evenodd" clip-rule="evenodd"
        d="M10.0994 12.6724C9.03155 12.6724 8.16591 13.538 8.16591 14.6058C8.16591 15.6736 9.03155 16.5393 10.0994 16.5393C11.1672 16.5393 12.0328 15.6736 12.0328 14.6058C12.0328 13.538 11.1672 12.6724 10.0994 12.6724ZM9.76591 14.6058C9.76591 14.4217 9.9152 14.2724 10.0994 14.2724C10.2835 14.2724 10.4328 14.4217 10.4328 14.6058C10.4328 14.79 10.2835 14.9393 10.0994 14.9393C9.9152 14.9393 9.76591 14.79 9.76591 14.6058Z"
        fill="currentColor" />
    <path fill-rule="evenodd" clip-rule="evenodd"
        d="M1.36523 10.0722C1.36523 9.63032 1.72341 9.27215 2.16523 9.27215H18.0337C18.4755 9.27215 18.8337 9.63032 18.8337 10.0722V19.1398C18.8337 19.5816 18.4755 19.9398 18.0337 19.9398H2.16523C1.72341 19.9398 1.36523 19.5816 1.36523 19.1398V10.0722ZM2.96523 10.8722V18.3398H17.2337V10.8722H2.96523Z"
        fill="currentColor" />
</svg>