<svg xmlns="http://www.w3.org/2000/svg" width="24" height="24" viewBox="0 0 24 24" fill="none">
    <path
        d="M7.2002 2.0002C7.2002 1.55837 7.55837 1.2002 8.0002 1.2002H22.0002C22.442 1.2002 22.8002 1.55837 22.8002 2.0002V8.0002C22.8002 8.44202 22.442 8.8002 22.0002 8.8002H21.5002C21.0584 8.8002 20.7002 8.44202 20.7002 8.0002C20.7002 7.66446 20.907 7.37702 21.2002 7.25835V2.8002H8.74204C8.62337 3.09338 8.33593 3.3002 8.0002 3.3002C7.55837 3.3002 7.2002 2.94202 7.2002 2.5002V2.0002Z"
        fill="currentColor" />
    <path fill-rule="evenodd" clip-rule="evenodd"
        d="M12.0002 6.2002C11.0061 6.2002 10.2002 7.00608 10.2002 8.0002C10.2002 8.99431 11.0061 9.8002 12.0002 9.8002C12.9943 9.8002 13.8002 8.99431 13.8002 8.0002C13.8002 7.00608 12.9943 6.2002 12.0002 6.2002ZM11.8002 8.0002C11.8002 7.88974 11.8897 7.8002 12.0002 7.8002C12.1107 7.8002 12.2002 7.88974 12.2002 8.0002C12.2002 8.11065 12.1107 8.2002 12.0002 8.2002C11.8897 8.2002 11.8002 8.11065 11.8002 8.0002Z"
        fill="currentColor" />
    <path fill-rule="evenodd" clip-rule="evenodd"
        d="M5.0002 4.2002C4.55837 4.2002 4.2002 4.55837 4.2002 5.0002V11.0002C4.2002 11.442 4.55837 11.8002 5.0002 11.8002H19.0002C19.442 11.8002 19.8002 11.442 19.8002 11.0002V5.0002C19.8002 4.55837 19.442 4.2002 19.0002 4.2002H5.0002ZM5.8002 10.2002V5.8002H18.2002V10.2002H5.8002Z"
        fill="currentColor" />
    <path fill-rule="evenodd" clip-rule="evenodd"
        d="M0.200195 14.2002V20.8002H4.90171L13.1276 22.8567L20.9365 18.1713C22.1875 17.4207 21.4433 15.4957 20.0128 15.7818L13.1125 17.1619L7.18905 14.2002H0.200195ZM1.8002 19.2002V15.8002H6.81134L12.8879 18.8385L18.6282 17.6904L12.8727 21.1437L5.09868 19.2002H1.8002Z"
        fill="currentColor" />
</svg>