<svg xmlns="http://www.w3.org/2000/svg" width="24" height="24" viewBox="0 0 24 24" fill="none">
    <path
        d="M2.8002 12.0446C2.8002 6.93905 6.93905 2.8002 12.0446 2.8002C13.2463 2.8002 14.3926 3.02907 15.4436 3.44487C15.8545 3.6074 16.3193 3.4061 16.4818 2.99526C16.6443 2.58441 16.443 2.1196 16.0322 1.95706C14.7968 1.46835 13.4511 1.2002 12.0446 1.2002C6.0554 1.2002 1.2002 6.0554 1.2002 12.0446C1.2002 18.0338 6.0554 22.889 12.0446 22.889C18.0338 22.889 22.889 18.0338 22.889 12.0446C22.889 10.8099 22.6823 9.62178 22.3011 8.51398C22.1573 8.0962 21.702 7.87409 21.2843 8.01787C20.8665 8.16166 20.6444 8.6169 20.7882 9.03467C21.1125 9.97717 21.289 10.9894 21.289 12.0446C21.289 17.1501 17.1501 21.289 12.0446 21.289C6.93905 21.289 2.8002 17.1501 2.8002 12.0446Z"
        fill="currentColor" />
    <path
        d="M21.954 3.77031C22.2664 4.08273 22.2664 4.58926 21.954 4.90168L18.9173 7.93836C18.7673 8.08839 18.5638 8.17268 18.3516 8.17268C18.1395 8.17268 17.936 8.08839 17.7859 7.93836L16.3844 6.53682C16.072 6.2244 16.072 5.71787 16.3844 5.40545C16.6968 5.09303 17.2034 5.09303 17.5158 5.40545L18.3516 6.24131L20.8226 3.77031C21.135 3.45789 21.6416 3.45789 21.954 3.77031Z"
        fill="currentColor" />
    <path fill-rule="evenodd" clip-rule="evenodd"
        d="M8.49703 9.92845C8.49703 7.9407 10.1185 6.3391 12.1065 6.3391C14.0945 6.3391 15.7159 7.9407 15.7159 9.92845C15.7159 11.9162 14.0945 13.5178 12.1065 13.5178C10.1185 13.5178 8.49703 11.9162 8.49703 9.92845ZM12.1065 7.9391C10.9913 7.9391 10.097 8.83517 10.097 9.92845C10.097 11.0217 10.9913 11.9178 12.1065 11.9178C13.2217 11.9178 14.1159 11.0217 14.1159 9.92845C14.1159 8.83517 13.2217 7.9391 12.1065 7.9391Z"
        fill="currentColor" />
    <path
        d="M7.28138 15.1908C8.01839 14.4013 9.03025 13.9464 10.098 13.9464H13.9638C15.0238 13.9464 16.0657 14.3955 16.8081 15.1908C17.211 15.6224 17.5141 16.1347 17.706 16.6878C17.8508 17.1052 17.6297 17.561 17.2123 17.7057C16.7949 17.8505 16.3391 17.6295 16.1943 17.2121C16.073 16.8623 15.8836 16.5451 15.6385 16.2826C15.1971 15.8097 14.5779 15.5464 13.9638 15.5464H10.098C9.4915 15.5464 8.89776 15.804 8.45096 16.2826C8.20588 16.5451 8.01647 16.8623 7.89516 17.2121C7.75038 17.6295 7.29461 17.8505 6.87718 17.7057C6.45975 17.561 6.23873 17.1052 6.38351 16.6878C6.57534 16.1347 6.87849 15.6224 7.28138 15.1908Z"
        fill="currentColor" />
</svg>