<svg xmlns="http://www.w3.org/2000/svg" width="24" height="24" viewBox="0 0 24 24" fill="none">
    <path fill-rule="evenodd" clip-rule="evenodd"
        d="M18.6636 2.25165C19.4493 1.99997 20.5669 1.87914 21.344 2.65627C22.1063 3.4186 22.033 4.54538 21.8116 5.35643C21.577 6.21555 21.0877 7.08457 20.5309 7.64144C20.5249 7.64746 20.5187 7.65338 20.5125 7.65921L17.4525 10.5298L19.9986 18.4291C20.1252 18.8219 20.0212 19.2525 19.7294 19.5444L18.0801 21.1936C17.5741 21.6996 16.7273 21.5954 16.3591 20.9817L12.8413 15.1188L10.4189 17.5411L11.1762 19.2431C11.3612 19.6591 11.2709 20.1461 10.949 20.4681L9.3821 22.0349C8.78493 22.6321 7.78578 22.5102 7.34963 21.787L5.41731 18.5829L2.21322 16.6506C1.49002 16.2145 1.36816 15.2153 1.96534 14.6182L3.5322 13.0513C3.85415 12.7293 4.34117 12.639 4.75716 12.8241L6.45915 13.5813L8.88149 11.159L3.01851 7.64117C2.40486 7.27298 2.30061 6.42614 2.80663 5.92011L4.4559 4.27085C4.74773 3.97902 5.17836 3.8751 5.57117 4.0017L13.4873 6.55318L16.4649 3.57551C17.0029 3.03757 17.8286 2.51909 18.6636 2.25165ZM19.1516 3.7754C18.5581 3.96549 17.9533 4.34993 17.5963 4.70688L14.2729 8.03028C14.0607 8.24252 13.7475 8.3181 13.4618 8.22602L5.37119 5.6183L4.39083 6.59866L10.0342 9.98466C10.7594 10.4198 10.8826 11.4206 10.2846 12.0186L7.20185 15.1014C6.9677 15.3355 6.61351 15.4012 6.31097 15.2666L4.42065 14.4256L3.36777 15.4785L6.41321 17.3151C6.52462 17.3822 6.61795 17.4756 6.68514 17.587L8.52179 20.6325L9.57468 19.5796L8.73366 17.6893C8.59906 17.3867 8.66476 17.0326 8.8989 16.7984L11.9816 13.7157C12.5796 13.1177 13.5805 13.2409 14.0156 13.9661L17.4016 19.6094L18.382 18.6291L15.7742 10.5384C15.6793 10.244 15.7627 9.92123 15.9883 9.70957L19.4077 6.50179C19.7434 6.16206 20.0995 5.5524 20.268 4.93504C20.4511 4.26456 20.3369 3.9119 20.2126 3.78764C20.1032 3.67819 19.7943 3.56953 19.1516 3.7754Z"
        fill="currentColor" />
</svg>