<svg xmlns="http://www.w3.org/2000/svg" width="24" height="24" viewBox="0 0 24 24" fill="none">
    <path fill-rule="evenodd" clip-rule="evenodd"
        d="M9.34126 7.05449C8.07064 7.05449 7.05364 8.09233 7.05364 9.35642C7.05364 10.6205 8.07064 11.6583 9.34126 11.6583C10.6119 11.6583 11.6289 10.6205 11.6289 9.35642C11.6289 8.09233 10.6119 7.05449 9.34126 7.05449ZM8.65364 9.35642C8.65364 8.96152 8.9687 8.65449 9.34126 8.65449C9.71382 8.65449 10.0289 8.96152 10.0289 9.35642C10.0289 9.75131 9.71382 10.0583 9.34126 10.0583C8.9687 10.0583 8.65364 9.75131 8.65364 9.35642Z"
        fill="currentColor" />
    <path
        d="M15.3847 8.89669C15.6838 8.57149 15.6626 8.0654 15.3374 7.76631C15.0122 7.46722 14.5061 7.48838 14.207 7.81358L7.76069 14.8226C7.46159 15.1478 7.48276 15.6538 7.80795 15.9529C8.13315 16.252 8.63924 16.2309 8.93834 15.9057L15.3847 8.89669Z"
        fill="currentColor" />
    <path fill-rule="evenodd" clip-rule="evenodd"
        d="M13.8041 12.0609C12.5335 12.0609 11.5165 13.0987 11.5165 14.3628C11.5165 15.6269 12.5335 16.6648 13.8041 16.6648C15.0747 16.6648 16.0917 15.6269 16.0917 14.3628C16.0917 13.0987 15.0747 12.0609 13.8041 12.0609ZM13.1165 14.3628C13.1165 13.9679 13.4316 13.6609 13.8041 13.6609C14.1767 13.6609 14.4917 13.9679 14.4917 14.3628C14.4917 14.7577 14.1767 15.0648 13.8041 15.0648C13.4316 15.0648 13.1165 14.7577 13.1165 14.3628Z"
        fill="currentColor" />
    <path fill-rule="evenodd" clip-rule="evenodd"
        d="M11.8587 0.760742C5.72892 0.760742 0.759766 5.72989 0.759766 11.8596C0.759766 17.9894 5.72892 22.9586 11.8587 22.9586C17.9884 22.9586 22.9576 17.9894 22.9576 11.8596C22.9576 5.72989 17.9884 0.760742 11.8587 0.760742ZM2.35977 11.8596C2.35977 6.61355 6.61257 2.36074 11.8587 2.36074C17.1048 2.36074 21.3576 6.61355 21.3576 11.8596C21.3576 17.1057 17.1048 21.3586 11.8587 21.3586C6.61257 21.3586 2.35977 17.1057 2.35977 11.8596Z"
        fill="currentColor" />
</svg>