<svg xmlns="http://www.w3.org/2000/svg" width="24" height="24" viewBox="0 0 24 24" fill="none">
    <path
        d="M16.0657 9.06581C16.3781 8.75339 16.3781 8.24686 16.0657 7.93444C15.7533 7.62202 15.2467 7.62202 14.9343 7.93444L7.93431 14.9344C7.6219 15.2469 7.6219 15.7534 7.93431 16.0658C8.24673 16.3782 8.75327 16.3782 9.06569 16.0658L16.0657 9.06581Z"
        fill="currentColor" />
    <path fill-rule="evenodd" clip-rule="evenodd"
        d="M7.7 9.50012C7.7 8.50601 8.50589 7.70012 9.5 7.70012C10.4941 7.70012 11.3 8.50601 11.3 9.50012C11.3 10.4942 10.4941 11.3001 9.5 11.3001C8.50589 11.3001 7.7 10.4942 7.7 9.50012ZM9.5 9.30012C9.38954 9.30012 9.3 9.38967 9.3 9.50012C9.3 9.61058 9.38954 9.70012 9.5 9.70012C9.61046 9.70012 9.7 9.61058 9.7 9.50012C9.7 9.38967 9.61046 9.30012 9.5 9.30012Z"
        fill="currentColor" />
    <path fill-rule="evenodd" clip-rule="evenodd"
        d="M14.5 12.7001C13.5059 12.7001 12.7 13.506 12.7 14.5001C12.7 15.4942 13.5059 16.3001 14.5 16.3001C15.4941 16.3001 16.3 15.4942 16.3 14.5001C16.3 13.506 15.4941 12.7001 14.5 12.7001ZM14.3 14.5001C14.3 14.3897 14.3895 14.3001 14.5 14.3001C14.6105 14.3001 14.7 14.3897 14.7 14.5001C14.7 14.6106 14.6105 14.7001 14.5 14.7001C14.3895 14.7001 14.3 14.6106 14.3 14.5001Z"
        fill="currentColor" />
    <path fill-rule="evenodd" clip-rule="evenodd"
        d="M12.5916 1.46141C12.44 1.29502 12.2253 1.2002 12.0002 1.2002C11.7751 1.2002 11.5604 1.29502 11.4088 1.46141L9.68369 3.35489L7.24294 2.57766C7.02846 2.50936 6.79513 2.53458 6.6002 2.64712C6.40526 2.75967 6.26676 2.94913 6.21867 3.16902L5.67139 5.67139L3.16902 6.21867C2.94913 6.26676 2.75967 6.40526 2.64712 6.6002C2.53458 6.79513 2.50936 7.02846 2.57766 7.24294L3.35489 9.68369L1.46141 11.4088C1.29502 11.5604 1.2002 11.7751 1.2002 12.0002C1.2002 12.2253 1.29502 12.44 1.46141 12.5916L3.35489 14.3167L2.57766 16.7575C2.50936 16.9719 2.53458 17.2053 2.64712 17.4002C2.75967 17.5951 2.94913 17.7336 3.16902 17.7817L5.67139 18.329L6.21867 20.8314C6.26676 21.0513 6.40526 21.2407 6.6002 21.3533C6.79513 21.4658 7.02846 21.491 7.24294 21.4227L9.68369 20.6455L11.4088 22.539C11.5604 22.7054 11.7751 22.8002 12.0002 22.8002C12.2253 22.8002 12.44 22.7054 12.5916 22.539L14.3167 20.6455L16.7575 21.4227C16.9719 21.491 17.2053 21.4658 17.4002 21.3533C17.5951 21.2407 17.7336 21.0513 17.7817 20.8314L18.329 18.329L20.8314 17.7817C21.0513 17.7336 21.2407 17.5951 21.3533 17.4002C21.4658 17.2053 21.491 16.9719 21.4227 16.7575L20.6455 14.3167L22.539 12.5916C22.7054 12.44 22.8002 12.2253 22.8002 12.0002C22.8002 11.7751 22.7054 11.5604 22.539 11.4088L20.6455 9.68369L21.4227 7.24294C21.491 7.02846 21.4658 6.79513 21.3533 6.6002C21.2407 6.40526 21.0513 6.26676 20.8314 6.21867L18.329 5.67139L17.7817 3.16902C17.7336 2.94913 17.5951 2.75967 17.4002 2.64712C17.2053 2.53458 16.9719 2.50936 16.7575 2.57766L14.3167 3.35489L12.5916 1.46141ZM10.521 4.81158L12.0002 3.18805L13.4794 4.81158C13.6899 5.04262 14.0157 5.12991 14.3135 5.03507L16.4063 4.36865L16.8755 6.51426C16.9423 6.8196 17.1808 7.05809 17.4861 7.12487L19.6317 7.59412L18.9653 9.6869C18.8705 9.98472 18.9578 10.3105 19.1888 10.521L20.8123 12.0002L19.1888 13.4794C18.9578 13.6899 18.8705 14.0157 18.9653 14.3135L19.6317 16.4063L17.4861 16.8755C17.1808 16.9423 16.9423 17.1808 16.8755 17.4861L16.4063 19.6317L14.3135 18.9653C14.0157 18.8705 13.6899 18.9578 13.4794 19.1888L12.0002 20.8123L10.521 19.1888C10.3105 18.9578 9.98472 18.8705 9.6869 18.9653L7.59412 19.6317L7.12487 17.4861C7.05809 17.1808 6.8196 16.9423 6.51426 16.8755L4.36865 16.4063L5.03507 14.3135C5.12991 14.0157 5.04262 13.6899 4.81158 13.4794L3.18805 12.0002L4.81158 10.521C5.04262 10.3105 5.12991 9.98472 5.03507 9.6869L4.36865 7.59412L6.51426 7.12487C6.8196 7.05809 7.05809 6.8196 7.12487 6.51426L7.59412 4.36865L9.6869 5.03507C9.98472 5.12991 10.3105 5.04262 10.521 4.81158Z"
        fill="currentColor" />
</svg>