<svg xmlns="http://www.w3.org/2000/svg" width="24" height="24" viewBox="0 0 24 24" fill="none">
    <path fill-rule="evenodd" clip-rule="evenodd"
        d="M12.3553 9.86378C10.7378 9.86378 9.42148 11.1708 9.42148 12.7895C9.42148 14.4082 10.7378 15.7153 12.3553 15.7153C13.9727 15.7153 15.2891 14.4082 15.2891 12.7895C15.2891 11.1708 13.9727 9.86378 12.3553 9.86378ZM11.0215 12.7895C11.0215 12.0602 11.6158 11.4638 12.3553 11.4638C13.0948 11.4638 13.6891 12.0602 13.6891 12.7895C13.6891 13.5189 13.0948 14.1153 12.3553 14.1153C11.6158 14.1153 11.0215 13.5189 11.0215 12.7895Z"
        fill="currentColor" />
    <path
        d="M8.88766 12.7895C8.88766 12.3477 8.52949 11.9895 8.08766 11.9895C7.64583 11.9895 7.28766 12.3477 7.28766 12.7895C7.28766 15.5822 9.55937 17.841 12.3553 17.841C15.1512 17.841 17.4229 15.5822 17.4229 12.7895C17.4229 12.3477 17.0647 11.9895 16.6229 11.9895C16.1811 11.9895 15.8229 12.3477 15.8229 12.7895C15.8229 14.6929 14.2733 16.241 12.3553 16.241C10.4373 16.241 8.88766 14.6929 8.88766 12.7895Z"
        fill="currentColor" />
    <path fill-rule="evenodd" clip-rule="evenodd"
        d="M18.1342 3.41878V4.69773C18.9651 5.01777 19.5566 5.82185 19.5566 6.76672V20.5832C19.5566 21.8105 18.5587 22.8002 17.3342 22.8002H5.95458C5.12281 22.8002 4.44336 22.1277 4.44336 21.2917V6.05818C4.44336 5.64313 4.61084 5.26837 4.88129 4.9962C4.97259 4.81081 5.13524 4.66069 5.34685 4.59041L15.2098 1.3152C16.6446 0.838727 18.1342 1.90158 18.1342 3.41878ZM15.714 2.83367C16.1213 2.69841 16.5342 3.00152 16.5342 3.41878V4.54965H10.5465L15.714 2.83367ZM6.04336 21.2002V6.14965H17.3342C17.6808 6.14965 17.9566 6.42877 17.9566 6.76672V20.5832C17.9566 20.9211 17.6808 21.2002 17.3342 21.2002H6.04336Z"
        fill="currentColor" />
</svg>