<svg xmlns="http://www.w3.org/2000/svg" width="24" height="24" viewBox="0 0 24 24" fill="none">
    <path fill-rule="evenodd" clip-rule="evenodd"
        d="M12 2.8002C6.91893 2.8002 2.79995 6.91918 2.79995 12.0002C2.79995 17.0812 6.91893 21.2002 12 21.2002C14.5387 21.2002 16.836 20.1729 18.5014 18.5095C18.814 18.1973 19.3205 18.1976 19.6328 18.5102C19.945 18.8228 19.9447 19.3293 19.6321 19.6416C17.6789 21.5924 14.9797 22.8002 12 22.8002C6.03528 22.8002 1.19995 17.9649 1.19995 12.0002C1.19995 6.03552 6.03528 1.2002 12 1.2002C14.6926 1.2002 17.1567 2.18607 19.0479 3.81577L20.4292 2.43451C20.7416 2.12209 21.2481 2.12209 21.5605 2.43451C21.873 2.74693 21.873 3.25346 21.5605 3.56588L19.7208 5.40558C19.6969 5.43809 19.6703 5.46921 19.6409 5.4986C19.6117 5.52777 19.5808 5.55421 19.5485 5.57793L16.891 8.23541C16.8672 8.26781 16.8406 8.29882 16.8112 8.32812C16.7822 8.35706 16.7516 8.38331 16.7195 8.40687L14.4616 10.6648C14.6773 11.0618 14.8 11.5171 14.8 12.0002C14.8 12.7727 14.4855 13.4718 13.9819 13.9768C13.4766 14.4835 12.7752 14.8002 12 14.8002C10.4536 14.8002 9.19995 13.5466 9.19995 12.0002C9.19995 10.4538 10.4536 9.2002 12 9.2002C12.4804 9.2002 12.9332 9.32151 13.3287 9.53493L15.0644 7.79926C14.2048 7.17066 13.1461 6.8002 12 6.8002C9.12807 6.8002 6.79995 9.12831 6.79995 12.0002C6.79995 14.8721 9.12807 17.2002 12 17.2002C13.4412 17.2002 14.7443 16.6149 15.687 15.6671C15.9985 15.3538 16.5051 15.3524 16.8183 15.664C17.1316 15.9756 17.133 16.4821 16.8214 16.7954C15.5907 18.0328 13.8842 18.8002 12 18.8002C8.24441 18.8002 5.19995 15.7557 5.19995 12.0002C5.19995 8.24466 8.24441 5.2002 12 5.2002C13.588 5.2002 15.0493 5.74561 16.2061 6.65759L17.9129 4.95078C16.3135 3.60782 14.2516 2.8002 12 2.8002ZM12 10.8002C11.3372 10.8002 10.8 11.3375 10.8 12.0002C10.8 12.6629 11.3372 13.2002 12 13.2002C12.3312 13.2002 12.6303 13.0663 12.849 12.8469C13.067 12.6283 13.2 12.3303 13.2 12.0002C13.2 11.6675 13.0659 11.3678 12.8472 11.1499C12.6295 10.933 12.3311 10.8002 12 10.8002Z"
        fill="currentColor" />
</svg>