<svg xmlns="http://www.w3.org/2000/svg" width="24" height="24" viewBox="0 0 24 24" fill="none">
    <path fill-rule="evenodd" clip-rule="evenodd"
        d="M10.6115 2.2002C5.41366 2.2002 1.19995 6.4139 1.19995 11.6118C1.19995 16.8096 5.41366 21.0234 10.6115 21.0234C13.2343 21.0234 15.6065 19.9505 17.3132 18.2198C17.3522 18.3192 17.4119 18.4123 17.4922 18.4926L21.2323 22.2327C21.5447 22.5451 22.0512 22.5451 22.3636 22.2327C22.6761 21.9203 22.6761 21.4137 22.3636 21.1013L18.6236 17.3612C18.5103 17.248 18.3716 17.1758 18.2258 17.1447C19.3562 15.5917 20.0231 13.6796 20.0231 11.6118C20.0231 6.4139 15.8094 2.2002 10.6115 2.2002ZM2.79995 11.6118C2.79995 7.29756 6.29732 3.8002 10.6115 3.8002C14.9257 3.8002 18.4231 7.29756 18.4231 11.6118C18.4231 15.926 14.9257 19.4234 10.6115 19.4234C6.29732 19.4234 2.79995 15.926 2.79995 11.6118Z"
        fill="currentColor" />
</svg>