<svg xmlns="http://www.w3.org/2000/svg" width="24" height="24" viewBox="0 0 24 24" fill="none">
    <path
        d="M16.2273 10.2385C16.543 9.9294 16.5483 9.4229 16.2392 9.10719C15.9302 8.79147 15.4237 8.7861 15.1079 9.09519L10.9009 13.2139L8.89392 11.249C8.5782 10.9399 8.0717 10.9453 7.76261 11.261C7.45352 11.5767 7.45889 12.0832 7.7746 12.3923L10.3413 14.9052C10.6523 15.2096 11.1496 15.2096 11.4606 14.9052L16.2273 10.2385Z"
        fill="currentColor" />
    <path fill-rule="evenodd" clip-rule="evenodd"
        d="M12.168 0.276415C11.8418 0.174789 11.4919 0.174789 11.1657 0.276415L3.36573 2.70665C2.68159 2.91981 2.2002 3.54875 2.2002 4.27771V14.6115C2.2002 17.4908 4.19391 19.6464 6.166 21.0855C8.16487 22.5442 10.3415 23.4166 11.1106 23.701C11.4771 23.8365 11.8698 23.8329 12.2333 23.6919C12.9991 23.3949 15.1725 22.4865 17.1685 21.0157C19.1316 19.5692 21.1335 17.421 21.1335 14.6115V4.27771C21.1335 3.54875 20.6521 2.91981 19.968 2.70665L12.168 0.276415ZM11.6417 1.80399C11.6579 1.79893 11.6758 1.79893 11.6921 1.80399L19.4921 4.23423C19.5268 4.24506 19.5335 4.26902 19.5335 4.27771V14.6115C19.5335 16.624 18.0809 18.3559 16.2193 19.7276C14.3951 21.0719 12.379 21.9189 11.6599 22.1982C10.94 21.9317 8.92846 21.1207 7.10916 19.7931C5.25836 18.4425 3.8002 16.7029 3.8002 14.6115V4.27771C3.8002 4.26902 3.8069 4.24506 3.84167 4.23423L11.6417 1.80399Z"
        fill="currentColor" />
</svg>