<svg xmlns="http://www.w3.org/2000/svg" width="24" height="24" viewBox="0 0 24 24" fill="none">
    <path fill-rule="evenodd" clip-rule="evenodd"
        d="M19.4398 11.3652C19.4398 9.41686 17.8603 7.83745 15.912 7.83745C13.9637 7.83745 12.3843 9.41686 12.3843 11.3652C12.3843 13.3135 13.9637 14.8929 15.912 14.8929C17.8603 14.8929 19.4398 13.3135 19.4398 11.3652ZM15.912 9.43745C16.9767 9.43745 17.8398 10.3005 17.8398 11.3652C17.8398 12.4298 16.9767 13.2929 15.912 13.2929C14.8474 13.2929 13.9843 12.4298 13.9843 11.3652C13.9843 10.3005 14.8474 9.43745 15.912 9.43745Z"
        fill="currentColor" />
    <path fill-rule="evenodd" clip-rule="evenodd"
        d="M12.0016 1.2002C6.03599 1.2002 1.19995 6.03624 1.19995 12.0018C1.19995 17.9674 6.03599 22.8034 12.0016 22.8034C17.9671 22.8034 22.8031 17.9674 22.8031 12.0018C22.8031 6.03624 17.9671 1.2002 12.0016 1.2002ZM2.79995 12.0018C2.79995 6.91989 6.91965 2.8002 12.0016 2.8002C17.0835 2.8002 21.2031 6.91989 21.2031 12.0018C21.2031 13.5486 20.8215 15.0062 20.1472 16.2857C19.0561 15.5446 17.7195 15.1112 16.2815 15.1112C14.2881 15.1112 12.4754 15.9509 11.252 17.2931C10.3907 16.4866 9.26542 15.9568 8.0193 15.8482C9.51261 15.6184 10.6561 14.3279 10.6561 12.7702C10.6561 11.0502 9.26171 9.65582 7.54167 9.65582C5.82163 9.65582 4.42726 11.0502 4.42726 12.7702C4.42726 14.328 5.57088 15.6186 7.06433 15.8483C6.007 15.9406 5.03624 16.3362 4.24025 16.9468C3.32841 15.5186 2.79995 13.8219 2.79995 12.0018ZM5.21486 18.2156C6.39357 19.5023 7.93338 20.4527 9.67378 20.9064C9.73617 20.0891 9.96344 19.3195 10.3229 18.6244C9.62429 17.8864 8.63663 17.4275 7.54202 17.4275C6.66653 17.4275 5.86015 17.7208 5.21486 18.2156ZM11.2606 21.174C11.505 21.1935 11.7521 21.2034 12.0016 21.2034C14.9629 21.2034 17.5975 19.8045 19.2806 17.6314C18.4467 17.0554 17.4104 16.7112 16.2815 16.7112C13.5281 16.7112 11.3692 18.7365 11.2606 21.174ZM7.54167 11.2558C8.37806 11.2558 9.05608 11.9338 9.05608 12.7702C9.05608 13.6066 8.37806 14.2846 7.54167 14.2846C6.70528 14.2846 6.02726 13.6066 6.02726 12.7702C6.02726 11.9338 6.70528 11.2558 7.54167 11.2558Z"
        fill="currentColor" />
</svg>