<svg xmlns="http://www.w3.org/2000/svg" width="24" height="24" viewBox="0 0 24 24" fill="none">
    <path fill-rule="evenodd" clip-rule="evenodd"
        d="M10.4507 3.27343C10.9973 1.84285 12.9728 1.84245 13.5202 3.27224L15.2918 7.79204C15.3045 7.82189 15.3191 7.8364 15.3265 7.84214C15.3304 7.84521 15.333 7.84641 15.334 7.84681C15.3338 7.84674 15.3344 7.84696 15.334 7.84681C15.3344 7.8469 15.3356 7.84726 15.3359 7.84729L15.3389 7.84758L20.2958 8.34092L20.2971 8.34105C21.0344 8.41567 21.5291 8.94087 21.7126 9.50697C21.8956 10.0714 21.8047 10.7771 21.2848 11.2811L21.271 11.2941L17.5368 14.7462C17.5367 14.7463 17.5369 14.7461 17.5368 14.7462C17.5107 14.7706 17.4914 14.8086 17.5038 14.8701L18.6102 19.7072L18.6118 19.7141C18.7655 20.4147 18.4889 21.0698 18.0002 21.452C17.5055 21.839 16.7835 21.9467 16.1461 21.553L12.0167 18.999C12.0164 18.9988 12.016 18.9986 12.0157 18.9984C12.0102 18.9952 12.0064 18.9938 12.0043 18.9933C12.0021 18.9926 12.0007 18.9925 11.9998 18.9925C11.9989 18.9925 11.9975 18.9926 11.9953 18.9933C11.9932 18.9938 11.9894 18.9952 11.984 18.9984C11.9836 18.9986 11.9833 18.9988 11.9829 18.999L7.85419 21.5528C7.21038 21.9503 6.48644 21.8308 5.99669 21.4442C5.51475 21.0637 5.23215 20.4106 5.38851 19.7111L5.38988 19.705L6.51013 14.8695C6.52226 14.8084 6.50341 14.7709 6.47742 14.7466C6.4773 14.7465 6.47755 14.7467 6.47742 14.7466L2.74286 11.2941L2.73658 11.2883C2.21126 10.7921 2.10236 10.09 2.27799 9.5186C2.45416 8.94548 2.94799 8.41597 3.68829 8.34105L8.64666 7.84758L8.64969 7.84729C8.65308 7.84696 8.66062 7.84499 8.66874 7.83877C8.67591 7.83327 8.6808 7.8266 8.68383 7.81825L8.69045 7.8006L10.4507 3.27343ZM12.0085 3.81124C12.0119 3.81558 12.0189 3.82565 12.0262 3.845L12.0292 3.85276L13.8084 8.39195C14.038 8.9564 14.5478 9.37849 15.1817 9.43984C15.1823 9.4399 15.1829 9.43996 15.1835 9.44001L20.136 9.93292C20.1359 9.93291 20.1362 9.93293 20.136 9.93292C20.1467 9.93404 20.1502 9.93609 20.1554 9.94071C20.1644 9.94864 20.1801 9.96784 20.1906 10.0003C20.2011 10.0328 20.2016 10.0635 20.1969 10.0857C20.1933 10.1026 20.187 10.1157 20.1746 10.1287L16.448 13.5738C15.9918 13.9975 15.8122 14.6167 15.9405 15.2109L15.9426 15.2205L17.0495 20.0593C17.0585 20.1023 17.0528 20.1298 17.0466 20.1466C17.0391 20.1666 17.0268 20.1821 17.0145 20.1917C17.0088 20.1962 17.0044 20.1984 17.0018 20.1995C17.0014 20.1993 17.0009 20.1991 17.0003 20.1989C16.9977 20.1978 16.9933 20.1957 16.9872 20.192M16.9872 20.192L12.8493 17.6327C12.3238 17.3125 11.6758 17.3125 11.1503 17.6327L11.1458 17.6355L7.01301 20.1917C7.01294 20.1918 7.01309 20.1917 7.01301 20.1917C7.00859 20.1944 7.00497 20.1963 7.00258 20.1974C6.99942 20.196 6.99444 20.1934 6.98806 20.1883C6.9736 20.1769 6.96033 20.1596 6.95272 20.1391C6.94638 20.1221 6.94187 20.0979 6.94956 20.062C6.9497 20.0613 6.94984 20.0607 6.94998 20.0601L8.07339 15.2109C8.2017 14.6167 8.02208 13.9975 7.56586 13.5738L7.56452 13.5726L3.83348 10.1234C3.81565 10.106 3.80749 10.0893 3.8032 10.0708C3.79793 10.048 3.79823 10.0185 3.80737 9.98871C3.81656 9.95881 3.8302 9.94276 3.8362 9.93741C3.836 9.9376 3.83642 9.93722 3.8362 9.93741C3.83795 9.93576 3.83993 9.93391 3.84905 9.93296C3.84893 9.93297 3.84916 9.93294 3.84905 9.93296L8.80209 9.44001C8.80267 9.43996 8.80324 9.4399 8.80382 9.43985C9.41318 9.38088 9.96126 8.97757 10.1846 8.37305L11.9452 3.84501C11.9525 3.82566 11.9595 3.81558 11.9629 3.81124C11.9664 3.80679 11.9689 3.80498 11.97 3.8042C11.9725 3.80254 11.9776 3.8002 11.9857 3.8002C11.9937 3.8002 11.9989 3.80254 12.0014 3.8042C12.0025 3.80498 12.005 3.80679 12.0085 3.81124"
        fill="currentColor" />
</svg>