<svg xmlns="http://www.w3.org/2000/svg" width="24" height="24" viewBox="0 0 24 24" fill="none">
    <path fill-rule="evenodd" clip-rule="evenodd"
        d="M12 3.324C11.4396 3.324 10.9227 3.43311 10.5689 3.61003L4.14706 6.82111C4.00626 6.89151 3.92431 6.95604 3.8803 7.00004C3.92431 7.04404 4.00626 7.10856 4.14706 7.17896L10.5689 10.39C10.9227 10.567 11.4396 10.6761 12 10.6761C12.5603 10.6761 13.0772 10.567 13.431 10.39L19.8528 7.17896C19.9936 7.10856 20.0756 7.04403 20.1196 7.00003C20.0756 6.95603 19.9936 6.89151 19.8528 6.82111L13.431 3.61003C13.0772 3.43311 12.5603 3.324 12 3.324ZM12 1.724C12.7344 1.724 13.5125 1.86189 14.1466 2.17896L20.5684 5.39004C21.1756 5.69365 21.7516 6.22998 21.7516 7.00004C21.7516 7.77009 21.1756 8.30642 20.5684 8.61003L14.1466 11.8211C13.5125 12.1382 12.7344 12.2761 12 12.2761C11.2655 12.2761 10.4874 12.1382 9.85333 11.8211L3.43149 8.61003C2.8243 8.30642 2.24832 7.77009 2.24832 7.00004C2.24832 6.22998 2.8243 5.69365 3.43149 5.39004L9.85333 2.17896C10.4874 1.86189 11.2655 1.724 12 1.724ZM4.50479 10.7476C4.70239 11.1428 4.54222 11.6233 4.14704 11.8209C4.00623 11.8913 3.92429 11.9559 3.88028 11.9999C3.92429 12.0439 4.00623 12.1084 4.14704 12.1788L10.5689 15.3899C10.9227 15.5668 11.4395 15.6759 11.9999 15.6759C12.5603 15.6759 13.0771 15.5668 13.431 15.3899L19.8528 12.1788C19.9936 12.1084 20.0756 12.0439 20.1196 11.9999C20.0756 11.9559 19.9936 11.8913 19.8528 11.8209C19.4576 11.6233 19.2975 11.1428 19.4951 10.7476C19.6927 10.3524 20.1732 10.1923 20.5684 10.3899C21.1756 10.6935 21.7516 11.2298 21.7516 11.9999C21.7516 12.7699 21.1756 13.3062 20.5684 13.6099L14.1465 16.8209C13.5124 17.138 12.7344 17.2759 11.9999 17.2759C11.2655 17.2759 10.4874 17.138 9.8533 16.8209L3.43147 13.6099C2.82428 13.3062 2.24829 12.7699 2.24829 11.9999C2.24829 11.2298 2.82428 10.6935 3.43147 10.3899C3.82665 10.1923 4.30719 10.3524 4.50479 10.7476ZM4.50478 15.7477C4.70238 16.1428 4.54222 16.6234 4.14704 16.821C4.00622 16.8914 3.92428 16.9559 3.88027 16.9999C3.92428 17.0439 4.00622 17.1085 4.14704 17.1789L10.5689 20.39C10.9227 20.567 11.4395 20.6761 11.9999 20.6761C12.5603 20.6761 13.0771 20.567 13.431 20.39L19.8528 17.1789C19.9936 17.1085 20.0756 17.0439 20.1196 16.9999C20.0756 16.9559 19.9936 16.8914 19.8528 16.821C19.4576 16.6234 19.2975 16.1428 19.4951 15.7477C19.6927 15.3525 20.1732 15.1923 20.5684 15.3899C21.1756 15.6935 21.7516 16.2299 21.7516 16.9999C21.7516 17.77 21.1756 18.3063 20.5684 18.6099L14.1465 21.8211C13.5124 22.1382 12.7344 22.2761 11.9999 22.2761C11.2655 22.2761 10.4874 22.1382 9.85331 21.8211L3.43146 18.6099C2.82426 18.3063 2.24829 17.77 2.24829 16.9999C2.24829 16.2299 2.82426 15.6935 3.43146 15.3899C3.82664 15.1923 4.30718 15.3525 4.50478 15.7477Z"
        fill="currentColor" />
</svg>