<svg xmlns="http://www.w3.org/2000/svg" width="24" height="24" viewBox="0 0 24 24" fill="none">
    <path
        d="M4.90645 1.2002C2.80776 1.2002 1.10645 2.90151 1.10645 5.0002V6.5002C1.10645 6.94202 1.46462 7.3002 1.90645 7.3002C2.34827 7.3002 2.70645 6.94202 2.70645 6.5002V5.0002C2.70645 3.78517 3.69142 2.8002 4.90645 2.8002H6.40645C6.84827 2.8002 7.20645 2.44202 7.20645 2.0002C7.20645 1.55837 6.84827 1.2002 6.40645 1.2002H4.90645Z"
        fill="currentColor" />
    <path
        d="M17.4064 1.2002C16.9646 1.2002 16.6064 1.55837 16.6064 2.0002C16.6064 2.44202 16.9646 2.8002 17.4064 2.8002H18.9064C20.1215 2.8002 21.1064 3.78517 21.1064 5.0002V6.5002C21.1064 6.94202 21.4646 7.3002 21.9064 7.3002C22.3483 7.3002 22.7064 6.94202 22.7064 6.5002V5.0002C22.7064 2.90151 21.0051 1.2002 18.9064 1.2002H17.4064Z"
        fill="currentColor" />
    <path
        d="M2.70645 17.5002C2.70645 17.0584 2.34827 16.7002 1.90645 16.7002C1.46462 16.7002 1.10645 17.0584 1.10645 17.5002V19.0002C1.10645 21.0989 2.80776 22.8002 4.90645 22.8002H6.40645C6.84827 22.8002 7.20645 22.442 7.20645 22.0002C7.20645 21.5584 6.84827 21.2002 6.40645 21.2002H4.90645C3.69142 21.2002 2.70645 20.2152 2.70645 19.0002V17.5002Z"
        fill="currentColor" />
    <path
        d="M22.7064 17.5002C22.7064 17.0584 22.3483 16.7002 21.9064 16.7002C21.4646 16.7002 21.1064 17.0584 21.1064 17.5002V19.0002C21.1064 20.2152 20.1215 21.2002 18.9064 21.2002H17.4064C16.9646 21.2002 16.6064 21.5584 16.6064 22.0002C16.6064 22.442 16.9646 22.8002 17.4064 22.8002H18.9064C21.0051 22.8002 22.7064 21.0989 22.7064 19.0002V17.5002Z"
        fill="currentColor" />
    <path
        d="M19.0002 12.0001C19.0002 14.3108 17.8806 16.36 16.1543 17.6349C15.9315 16.5702 14.9445 16.1542 14.2035 15.8419C13.9223 15.7234 13.6765 15.6198 13.5215 15.5014C13.0877 15.1701 13.0406 14.3208 13.1093 13.8486C13.439 13.6597 13.6588 13.1403 13.7275 12.9042C14.7166 11.9597 14.277 11.2514 13.9336 11.0153C13.9336 8.9375 12.5599 8.57546 11.873 8.65416V8.18194C11.0487 8.18194 9.64754 8.9375 9.81239 11.0153C9.60632 11.094 9.27662 11.4875 9.60632 12.4319C9.7287 12.7825 10.0184 12.9042 10.0184 12.9042C10.2245 13.6125 10.6366 13.8486 10.6366 13.8486C10.7053 14.2421 10.719 15.1236 10.2245 15.5014C10.066 15.6224 9.81278 15.7125 9.52376 15.8152C8.81188 16.0682 7.88293 16.3984 7.61867 17.4595C6.02213 16.1766 5.00024 14.2077 5.00024 12.0001C5.00024 8.13413 8.13425 5.00012 12.0002 5.00012C15.8662 5.00012 19.0002 8.13413 19.0002 12.0001Z"
        fill="currentColor" />
    <path
        d="M11.9437 18.9999C12.1355 18.9987 12.3225 18.9925 12.5044 18.9822C12.3379 18.9941 12.1698 19.0001 12.0002 19.0001L11.9437 18.9999Z"
        fill="currentColor" />
</svg>