<svg xmlns="http://www.w3.org/2000/svg" width="25" height="24" viewBox="0 0 25 24" fill="none">
    <path
        d="M2.60247 11.0805C5.01659 8.44839 8.48177 6.80001 12.3331 6.80001C16.1845 6.80001 19.6496 8.44839 22.0638 11.0805C22.3624 11.4062 22.8685 11.428 23.1941 11.1294C23.5197 10.8307 23.5416 10.3247 23.2429 9.99907C20.5385 7.05039 16.6513 5.20001 12.3331 5.20001C8.01491 5.20001 4.12773 7.05039 1.42332 9.99907C1.12468 10.3247 1.14654 10.8307 1.47216 11.1294C1.79777 11.428 2.30383 11.4062 2.60247 11.0805Z"
        fill="currentColor" />
    <path
        d="M6.02807 13.3002C7.67548 11.7492 9.89256 10.8 12.3331 10.8C14.7736 10.8 16.9907 11.7492 18.6381 13.3002C18.9598 13.6031 19.4661 13.5878 19.769 13.2661C20.0718 12.9444 20.0566 12.4381 19.7349 12.1353C17.8025 10.316 15.1972 9.20001 12.3331 9.20001C9.46895 9.20001 6.86371 10.316 4.93131 12.1353C4.60962 12.4381 4.59435 12.9444 4.89721 13.2661C5.20008 13.5878 5.70638 13.6031 6.02807 13.3002Z"
        fill="currentColor" />
    <path
        d="M12.333 14.8C11.0455 14.8 9.86907 15.2669 8.96074 16.0416C8.62457 16.3283 8.11963 16.2882 7.83292 15.952C7.54621 15.6159 7.5863 15.1109 7.92247 14.8242C9.10945 13.8119 10.6508 13.2 12.333 13.2C14.0152 13.2 15.5565 13.8119 16.7435 14.8242C17.0797 15.1109 17.1198 15.6159 16.8331 15.952C16.5464 16.2882 16.0414 16.3283 15.7053 16.0416C14.7969 15.2669 13.6205 14.8 12.333 14.8Z"
        fill="currentColor" />
    <path
        d="M12.3332 19C12.8855 19 13.3332 18.5523 13.3332 18C13.3332 17.4477 12.8855 17 12.3332 17C11.7809 17 11.3332 17.4477 11.3332 18C11.3332 18.5523 11.7809 19 12.3332 19Z"
        fill="currentColor" />
</svg>