<svg xmlns="http://www.w3.org/2000/svg" width="24" height="24" viewBox="0 0 24 24" fill="none">
    <path
        d="M5.0002 5.2002C4.55837 5.2002 4.2002 5.55837 4.2002 6.0002C4.2002 6.44202 4.55837 6.8002 5.0002 6.8002L14.0002 6.8002C14.442 6.8002 14.8002 6.44202 14.8002 6.0002C14.8002 5.55837 14.442 5.2002 14.0002 5.2002L5.0002 5.2002Z"
        fill="currentColor" />
    <path
        d="M16.2002 6.0002C16.2002 5.55837 16.5584 5.2002 17.0002 5.2002H19.0002C19.442 5.2002 19.8002 5.55837 19.8002 6.0002C19.8002 6.44202 19.442 6.8002 19.0002 6.8002H17.0002C16.5584 6.8002 16.2002 6.44202 16.2002 6.0002Z"
        fill="currentColor" />
    <path
        d="M11.0848 10.1502C10.944 10.5097 10.8244 10.9349 10.7341 11.4095C11.1324 11.4674 11.557 11.4991 12.0007 11.4991C12.4442 11.4991 12.8686 11.4674 13.2666 11.4096C13.1762 10.935 13.0566 10.5097 12.9158 10.1502C12.7525 9.73312 12.5704 9.42959 12.3937 9.23877C12.2176 9.04854 12.0842 9.00715 12.0003 9.00715C11.9165 9.00715 11.7831 9.04854 11.607 9.23877C11.4303 9.42959 11.2482 9.73312 11.0848 10.1502Z"
        fill="currentColor" />
    <path
        d="M8.43801 10.6292C8.78773 10.8555 9.23502 11.0526 9.75568 11.2017C9.85621 10.6797 9.99067 10.2018 10.1537 9.78552C10.2442 9.55451 10.3457 9.33677 10.4585 9.13816C9.65511 9.43482 8.95724 9.95673 8.43801 10.6292Z"
        fill="currentColor" />
    <path
        d="M13.847 9.78552C13.7565 9.55456 13.655 9.33686 13.5422 9.13829C14.3457 9.43504 15.0435 9.95707 15.5627 10.6297C15.213 10.8559 14.7657 11.0529 14.245 11.202C14.1445 10.6799 14.01 10.2019 13.847 9.78552Z"
        fill="currentColor" />
    <path
        d="M12.0007 12.4991C12.4827 12.4991 12.9538 12.465 13.4043 12.3999C13.4363 12.7496 13.4534 13.1159 13.4534 13.4943C13.4534 13.8731 13.4362 14.2398 13.4042 14.5899C12.9538 14.5248 12.4827 14.4907 12.0007 14.4907C11.5185 14.4907 11.0471 14.5248 10.5965 14.59C10.5644 14.2399 10.5472 13.8731 10.5472 13.4943C10.5472 13.1159 10.5644 12.7495 10.5964 12.3998C11.0471 12.465 11.5185 12.4991 12.0007 12.4991Z"
        fill="currentColor" />
    <path
        d="M14.4534 13.4943C14.4534 13.9396 14.4314 14.3739 14.3895 14.7903C15.0359 14.963 15.6135 15.2058 16.0849 15.5069C16.3728 14.8984 16.5342 14.2157 16.5342 13.4945C16.5342 12.7735 16.3729 12.0911 16.0852 11.4827C15.6138 11.7839 15.0361 12.0268 14.3896 12.1994C14.4315 12.6155 14.4534 13.0494 14.4534 13.4943Z"
        fill="currentColor" />
    <path
        d="M12.0007 15.4907C12.4441 15.4907 12.8684 15.5223 13.2664 15.5801C13.176 16.0543 13.0565 16.4791 12.9158 16.8384C12.7525 17.2554 12.5704 17.559 12.3937 17.7498C12.2176 17.94 12.0842 17.9814 12.0003 17.9814C11.9165 17.9814 11.7831 17.94 11.607 17.7498C11.4303 17.559 11.2482 17.2554 11.0848 16.8384C10.9442 16.4792 10.8246 16.0543 10.7343 15.5803C11.1325 15.5224 11.5571 15.4907 12.0007 15.4907Z"
        fill="currentColor" />
    <path
        d="M7.9158 15.5074C8.38712 15.2062 8.96476 14.9633 9.61121 14.7905C9.56925 14.374 9.54722 13.9396 9.54722 13.4943C9.54722 13.0494 9.56921 12.6154 9.61109 12.1992C8.96455 12.0265 8.38684 11.7835 7.91549 11.4822C7.62759 12.0907 7.4662 12.7733 7.4662 13.4945C7.4662 14.2159 7.6277 14.8988 7.9158 15.5074Z"
        fill="currentColor" />
    <path
        d="M10.1537 17.203C9.9908 16.7871 9.85641 16.3095 9.75591 15.788C9.23537 15.9371 8.78816 16.1341 8.43845 16.3603C8.9577 17.0326 9.6555 17.5543 10.4588 17.8509C10.3458 17.6521 10.2442 17.4342 10.1537 17.203Z"
        fill="currentColor" />
    <path
        d="M13.847 17.203C13.7564 17.4342 13.6549 17.6521 13.5419 17.8508C14.3453 17.5541 15.0431 17.0323 15.5623 16.3598C15.2125 16.1337 14.7653 15.9368 14.2448 15.7878C14.1443 16.3094 14.0099 16.787 13.847 17.203Z"
        fill="currentColor" />
    <path fill-rule="evenodd" clip-rule="evenodd"
        d="M4.0002 2.2002C2.4538 2.2002 1.2002 3.4538 1.2002 5.0002V19.0002C1.2002 20.5466 2.4538 21.8002 4.0002 21.8002H20.0002C21.5466 21.8002 22.8002 20.5466 22.8002 19.0002V5.0002C22.8002 3.4538 21.5466 2.2002 20.0002 2.2002H4.0002ZM2.8002 5.0002C2.8002 4.33745 3.33745 3.8002 4.0002 3.8002H20.0002C20.6629 3.8002 21.2002 4.33745 21.2002 5.0002V19.0002C21.2002 19.6629 20.6629 20.2002 20.0002 20.2002H4.0002C3.33745 20.2002 2.8002 19.6629 2.8002 19.0002V5.0002Z"
        fill="currentColor" />
</svg>